<svg width="231" height="47" viewBox="0 0 231 47" fill="none" xmlns="http://www.w3.org/2000/svg">
<path d="M226.788 6.9668C228.641 7.58963 230 8.95778 230 11.8205V40.9465C230 43.933 227.651 46.2979 224.686 46.2979H6.43743C3.47179 46.2979 1 43.933 1 40.9465V26.5079" stroke="white" stroke-width="1.12188" stroke-miterlimit="2.613"/>
<path fill-rule="evenodd" clip-rule="evenodd" d="M24.7277 42.9375C19.1665 42.9375 14.7167 41.0703 11.381 37.3359C8.04405 33.7266 6.31366 28.8729 6.31366 22.8986C6.31366 17.0482 8.04405 12.1945 11.6286 8.46009C15.0894 4.72569 19.5378 2.85979 24.8515 2.85979C27.9409 2.85979 30.6602 3.48132 32.8845 4.72568C34.9849 5.84627 36.0977 7.33951 36.0977 8.95784C36.0977 9.95333 35.7276 10.825 34.9849 11.6967C34.2435 12.4434 33.3783 12.8173 32.5131 12.8173C31.8955 12.8173 30.7827 12.5685 29.0523 12.0707C27.4457 11.573 26.0867 11.3241 24.8502 11.3241C22.1308 11.3241 19.9066 12.4434 18.1762 14.5594C16.4458 16.6755 15.7057 19.5382 15.7057 23.1488C15.7057 26.6331 16.5709 29.3707 18.1762 31.4867C19.9066 33.4777 22.2546 34.4745 25.0977 34.4745C26.4568 34.4745 28.0634 34.2257 29.7938 33.6028C31.5241 32.8562 32.6369 32.606 33.1307 32.606C33.5807 32.6071 34.0248 32.7082 34.4309 32.902C34.8369 33.0958 35.1949 33.3775 35.4788 33.7266C36.2202 34.4732 36.5915 35.3436 36.5915 36.3404C36.5915 38.0825 35.4787 39.7009 33.1307 40.9452C30.9078 42.1909 28.0647 42.9375 24.7277 42.9375ZM40.5461 5.97136C40.5461 4.72569 41.04 3.48132 41.9052 2.61091C42.8941 1.61542 44.0069 1.11768 45.3659 1.11768C46.6025 1.11768 47.7139 1.61542 48.7029 2.61091C49.6906 3.48132 50.062 4.72699 50.062 5.97136C50.062 7.34081 49.6906 8.4614 48.7029 9.45689C47.8377 10.3273 46.725 10.825 45.3659 10.825C44.0069 10.825 42.8954 10.3273 41.9052 9.45689C41.0413 8.4614 40.5461 7.34081 40.5461 5.97136ZM49.4443 35.9678C49.4443 38.0838 49.0743 39.5784 48.4553 40.6977C47.8377 41.6945 46.725 42.1909 45.3659 42.1909C43.8831 42.1909 42.8954 41.5681 42.1527 40.5726C41.5338 39.5771 41.1637 38.0838 41.1637 35.9678V19.1642C41.1637 17.0482 41.5338 15.5549 42.1527 14.5594C42.8941 13.564 43.8831 13.0662 45.3659 13.0662C46.725 13.0662 47.8377 13.564 48.4553 14.5594C49.0743 15.5562 49.4443 17.0495 49.4443 19.1642V35.9678ZM63.78 27.5048C63.78 29.4958 64.2738 31.2379 65.2628 32.4822C66.2517 33.8517 67.6108 34.4745 69.2174 34.4745C70.824 34.4745 72.183 33.8504 73.172 32.4822C74.161 31.2379 74.6548 29.4958 74.6548 27.5048C74.6548 25.2636 74.161 23.6466 73.172 22.2771C72.183 21.0315 70.824 20.2848 69.2174 20.2848C67.6108 20.2848 66.2517 21.0315 65.2628 22.2771C64.2738 23.6466 63.78 25.3887 63.78 27.5048ZM74.7786 39.4533C73.9134 40.325 72.9244 41.0716 71.813 41.5694C70.5974 42.0674 69.2957 42.3211 67.9821 42.316C64.5227 42.316 61.5557 40.8228 58.9614 37.9588C56.4897 35.0974 55.1306 31.4867 55.1306 27.3797C55.1306 23.1488 56.3659 19.6633 58.9614 16.8006C61.4332 13.9379 64.3989 12.5685 67.9821 12.5685C69.3425 12.5685 70.4539 12.6935 71.5667 13.1913C72.6795 13.5653 73.6671 14.1881 74.5323 14.9334V7.34081C74.5323 5.22474 74.9024 3.6064 75.6451 2.61091C76.2627 1.61542 77.3755 1.11768 78.7345 1.11768C80.0935 1.11768 81.2063 1.61542 81.8239 2.61091C82.5653 3.73019 82.8129 5.22474 82.8129 7.34081V35.9678C82.8129 38.0838 82.5653 39.7022 81.8239 40.6977C81.2063 41.6945 80.0935 42.1909 78.7345 42.1909C77.8693 42.1909 77.1279 41.942 76.5103 41.4443C75.8102 40.8983 75.2222 40.2223 74.7786 39.4533ZM98.5076 35.9678C98.5076 38.0838 98.26 39.5784 97.5186 40.6977C96.901 41.6945 95.7882 42.1909 94.4292 42.1909C93.0701 42.1909 91.9574 41.5681 91.3384 40.5726C90.597 39.5771 90.2257 38.0838 90.2257 35.9678V19.1642C90.2257 17.0482 90.597 15.5549 91.3384 14.5594C91.9574 13.564 92.945 13.0662 94.4292 13.0662C95.7882 13.0662 96.901 13.564 97.5186 14.5594C98.26 15.5562 98.5076 17.0495 98.5076 19.1642V35.9678ZM104.315 37.3372C104.315 35.9678 104.809 34.8485 105.798 33.8517C106.663 32.9813 107.776 32.4822 109.135 32.4822C110.494 32.4822 111.607 32.9813 112.472 33.8517C113.461 34.8485 113.955 35.9678 113.955 37.3372C113.955 38.7067 113.461 39.8273 112.472 40.6977C111.607 41.6945 110.494 42.1909 109.135 42.1909C107.776 42.1909 106.664 41.6932 105.675 40.6977C104.81 39.8273 104.315 38.7054 104.315 37.3372Z" fill="white" stroke="white" stroke-width="0.373962" stroke-miterlimit="2.613"/>
<path fill-rule="evenodd" clip-rule="evenodd" d="M118.898 27.6289C118.898 23.1491 120.257 19.5385 122.853 16.7996C125.571 14.0607 129.032 12.6925 133.234 12.6925C136.077 12.6925 138.301 13.1903 140.032 14.1858C141.762 15.1813 142.627 16.5494 142.627 18.044C142.627 19.1632 142.256 19.9112 141.637 20.6578C140.897 21.2806 140.153 21.6533 139.166 21.6533C138.673 21.6533 137.807 21.4044 136.571 21.0305C135.212 20.5327 134.1 20.4076 133.234 20.4076C131.503 20.4076 130.144 21.0305 129.154 22.2748C128.041 23.6443 127.549 25.3864 127.549 27.5025C127.549 29.6185 128.043 31.3607 129.154 32.605C130.268 33.8494 131.75 34.4735 133.605 34.4735C134.47 34.4735 135.583 34.3484 136.817 33.8494C138.176 33.4767 138.919 33.2266 139.288 33.2266C140.278 33.2266 141.018 33.6005 141.637 34.3471C142.256 34.97 142.502 35.8404 142.502 36.8359C142.502 38.4542 141.637 39.6986 139.784 40.8191C137.806 41.9384 135.582 42.4375 132.74 42.4375C128.66 42.4375 125.325 41.068 122.728 38.3304C120.257 35.5954 118.898 31.9848 118.898 27.6289ZM156.098 27.5051C156.098 29.6211 156.591 31.3633 157.703 32.7327C158.691 33.9771 159.927 34.5999 161.658 34.5999C163.263 34.5999 164.622 33.9771 165.612 32.7327C166.6 31.3633 167.096 29.6211 167.096 27.5051C167.096 25.389 166.6 23.7707 165.612 22.4012C164.499 21.1568 163.142 20.534 161.658 20.534C160.052 20.534 158.691 21.1568 157.703 22.4012C156.591 23.7694 156.098 25.389 156.098 27.5051ZM147.446 27.6289C147.446 23.2716 148.807 19.6623 151.525 16.7996C154.121 14.0607 157.579 12.5675 161.659 12.5675C165.736 12.5675 169.074 14.0607 171.792 16.7996C174.388 19.6623 175.622 23.2716 175.622 27.6289C175.622 31.9848 174.388 35.5941 171.792 38.4581C169.074 41.197 165.736 42.689 161.659 42.689C157.579 42.689 154.121 41.1957 151.525 38.333C148.806 35.5954 147.446 31.9848 147.446 27.6289ZM183.285 35.9681V19.1646C183.285 17.0485 183.531 15.5552 184.275 14.5597C185.015 13.4405 186.003 12.9414 187.364 12.9414C188.23 12.9414 188.97 13.1903 189.589 13.688C190.205 14.062 190.823 14.8086 191.319 15.8041C192.184 14.8086 193.172 14.062 194.283 13.688C195.396 13.1903 196.633 12.9414 197.992 12.9414C199.845 12.9414 201.45 13.3154 202.812 13.9369C204.197 14.6778 205.416 15.6941 206.395 16.9234C207.631 15.5552 208.865 14.5584 210.224 13.9369C211.461 13.3141 212.945 12.9414 214.675 12.9414C217.64 12.9414 219.989 13.9369 221.717 15.8041C223.325 17.7951 224.19 20.5327 224.19 24.0182V35.9668C224.19 38.0828 223.819 39.5774 223.077 40.5716C222.458 41.5684 221.347 42.1899 219.988 42.1899C218.504 42.1899 217.515 41.6922 216.898 40.6967C216.156 39.5774 215.786 38.0828 215.786 35.9668V26.507C215.786 24.3909 215.537 22.7739 214.92 21.6533C214.301 20.6578 213.312 20.16 212.077 20.16C210.593 20.16 209.482 20.6578 208.863 21.6533C208.244 22.6488 207.875 24.2671 207.875 26.3832V35.9655C207.875 38.0815 207.504 39.5761 206.885 40.5703C206.518 41.0776 206.035 41.4894 205.476 41.7711C204.917 42.0527 204.299 42.1959 203.673 42.1886C202.311 42.1886 201.2 41.5658 200.583 40.5703C199.841 39.5748 199.471 38.0815 199.471 35.9655V26.5057C199.471 24.2658 199.222 22.7726 198.605 21.652C197.987 20.6565 196.998 20.1587 195.762 20.1587C194.278 20.1587 193.292 20.6565 192.548 21.652C191.929 22.6475 191.56 24.2658 191.56 26.3819V35.9642C191.56 38.0802 191.189 39.5748 190.57 40.569C189.83 41.5658 188.839 42.1873 187.358 42.1873C185.996 42.1873 184.885 41.5645 184.269 40.569C183.532 39.5774 183.285 38.0841 183.285 35.9681ZM111.978 2.61121C111.484 2.36234 111.113 2.11347 110.741 1.98838C110.371 1.86329 109.876 1.86329 109.506 1.86329C109.012 1.86329 108.765 1.8633 108.393 2.11217C108.147 2.36235 108.023 2.73631 108.023 3.11027C108.023 3.35914 108.147 3.60671 108.271 3.7318C108.395 3.85688 108.765 3.98067 109.26 4.10576L110.495 4.47973C112.349 4.97747 113.215 6.09806 113.215 7.71638C113.215 8.83697 112.843 9.70737 111.978 10.3302C111.237 11.0768 110.124 11.3257 108.765 11.3257C108.147 11.3257 107.528 11.3257 106.911 11.0768C106.293 10.953 105.675 10.7042 105.058 10.454L105.923 8.71188C106.541 8.96075 107.036 9.20962 107.406 9.33471C107.9 9.4598 108.395 9.58358 108.889 9.58358C110.124 9.58358 110.741 9.08583 110.741 8.09034C110.741 7.4675 110.248 6.96976 109.382 6.72089L108.147 6.34693C107.652 6.22184 107.158 5.97296 106.788 5.84917C106.541 5.6003 106.171 5.22634 105.923 4.85368C105.677 4.47972 105.552 3.98328 105.552 3.36045C105.552 2.36495 105.923 1.49324 106.664 0.870404C107.406 0.247569 108.271 0 109.506 0C110.124 0 110.741 0.123788 111.36 0.248876C111.978 0.497749 112.596 0.746622 113.091 1.11928L111.978 2.61121ZM122.975 11.3244C121.616 11.3244 120.629 10.8266 119.886 10.0787C119.146 9.3321 118.773 8.33661 118.773 6.96715C118.773 5.5977 119.145 4.6022 119.886 3.85558C120.629 3.10896 121.616 2.7363 122.853 2.7363C124.087 2.7363 125.077 2.98518 125.817 3.7318C126.436 4.47842 126.807 5.47391 126.807 6.84337C126.807 8.21282 126.561 9.3334 125.817 10.0787C125.202 10.8253 124.212 11.3244 122.975 11.3244ZM122.853 4.10446C122.234 4.10446 121.74 4.35333 121.494 4.85108C121.248 5.34882 121.122 6.09675 121.122 7.09094C121.122 8.08774 121.248 8.83436 121.494 9.20702C121.74 9.58098 122.234 9.82985 122.853 9.82985C123.347 9.82985 123.841 9.58228 124.087 9.08323C124.336 8.70927 124.458 7.96264 124.458 6.84206C124.458 5.97166 124.336 5.22373 124.087 4.85108C123.841 4.35333 123.472 4.10446 122.853 4.10446ZM137.93 11.1993H133.11V2.7363H135.212V9.45719H138.426L137.93 11.1993ZM149.919 10.4527C149.673 10.7016 149.425 10.9504 148.929 11.0755C148.409 11.2388 147.868 11.3227 147.323 11.3244C145.964 11.3244 144.974 11.0755 144.605 10.5778C144.356 10.08 144.109 9.70737 143.986 9.4585V2.7363H146.085V8.83565C146.085 8.95944 146.21 9.08453 146.332 9.33341C146.457 9.58228 146.828 9.70737 147.322 9.70737C147.444 9.70737 147.693 9.58358 147.816 9.58358C147.941 9.4585 148.187 9.45849 148.31 9.33471C148.31 9.20962 148.435 9.08583 148.435 8.96074C148.56 8.83696 148.56 8.463 148.56 8.09034V2.73891H150.659V8.33921C150.659 8.96205 150.659 9.33471 150.536 9.58489C150.413 9.95494 150.165 10.2038 149.919 10.4527ZM160.917 11.3244C160.175 11.3244 159.681 11.1993 159.187 11.0755C158.691 10.9517 158.197 10.5778 157.579 10.08C156.963 9.45849 156.717 8.4617 156.717 7.21733C156.717 6.09805 156.839 5.22635 157.333 4.60351C157.704 3.85689 158.198 3.35914 158.817 3.11027C159.436 2.73631 160.176 2.61252 160.919 2.61252C161.287 2.61252 161.784 2.61252 162.153 2.7376C162.647 2.86139 163.018 3.11157 163.265 3.23536L162.278 4.60481C161.784 4.35594 161.413 4.10706 160.919 4.10706C160.672 4.10706 160.422 4.23215 160.176 4.35594C160.048 4.35423 159.923 4.38836 159.813 4.45446C159.704 4.52055 159.615 4.61596 159.557 4.72989C159.435 4.85498 159.188 5.10386 159.188 5.47652C159.063 5.85048 159.063 6.22314 159.063 6.72219C159.063 7.84147 159.188 8.58939 159.31 8.96205C159.556 9.21092 159.803 9.4598 160.052 9.58489C160.299 9.70867 160.671 9.70867 161.04 9.70867C161.286 9.70867 161.534 9.70867 161.783 9.58489C162.029 9.58489 162.276 9.45979 162.523 9.21092L163.388 10.4553C162.686 11.0157 161.815 11.322 160.917 11.3244ZM169.074 11.1993V2.7363H171.298V11.1993H169.074ZM181.554 11.3244C181.002 11.3289 180.454 11.2207 179.944 11.0065C179.434 10.7924 178.974 10.4767 178.59 10.0787C177.847 9.3321 177.477 8.33661 177.477 6.96715C177.477 5.5977 177.846 4.6022 178.59 3.85558C179.33 3.10896 180.32 2.7363 181.554 2.7363C182.791 2.7363 183.779 2.98518 184.398 3.7318C185.14 4.47842 185.51 5.47391 185.51 6.84337C185.51 8.21282 185.264 9.3334 184.523 10.0787C183.904 10.8253 182.913 11.3244 181.554 11.3244ZM181.554 4.10446C180.935 4.10446 180.442 4.35333 180.195 4.85108C179.949 5.34882 179.824 6.09675 179.824 7.09094C179.824 8.08774 179.949 8.83436 180.195 9.20702C180.442 9.58098 180.935 9.82985 181.554 9.82985C182.048 9.82985 182.545 9.58228 182.791 9.08323C183.037 8.70927 183.16 7.96264 183.16 6.84206C183.16 5.97166 183.037 5.22373 182.791 4.85108C182.545 4.35333 182.173 4.10446 181.554 4.10446ZM196.261 5.84787V2.7363H198.239V11.1993H196.015L194.531 7.71507C194.16 6.84336 193.791 6.09675 193.666 5.59901V11.1993H191.813V2.7363H194.037L195.642 5.97166C195.768 6.22053 195.889 6.59449 196.014 6.96715C196.136 7.21603 196.26 7.58999 196.385 7.96265V6.84206C196.261 6.34562 196.261 6.09675 196.261 5.84787ZM205.037 11.1993V2.7363H210.351L210.104 4.35333H207.138V5.97166H209.608V7.58999H207.138V9.45719H210.475V11.1993H205.037ZM219.248 11.3244C218.629 11.3244 218.135 11.3244 217.642 11.1993C217.15 11.0742 216.652 10.8253 216.158 10.5765L216.777 9.08323C217.271 9.20701 217.765 9.45719 218.136 9.45719C218.508 9.58228 218.879 9.70606 219.249 9.70606C220.239 9.70606 220.733 9.3321 220.733 8.83565C220.733 8.33791 220.362 8.08904 219.745 7.96395L218.631 7.71507C217.766 7.4662 217.15 7.09225 216.904 6.5945C216.655 6.09675 216.532 5.599 216.532 5.22504C216.532 4.35333 216.778 3.7318 217.397 3.23405C218.016 2.73631 218.881 2.48744 219.868 2.48744C220.487 2.48744 220.981 2.61252 221.598 2.7363C222.217 2.86009 222.711 3.11027 223.082 3.35914L222.092 4.85238C221.227 4.35463 220.608 4.22955 219.868 4.22955C219.622 4.22955 219.249 4.22955 219.128 4.35333C219.014 4.4124 218.919 4.50196 218.854 4.61197C218.788 4.72199 218.754 4.8481 218.756 4.97616C218.756 5.09995 218.881 5.35013 219.003 5.47392C219.128 5.47392 219.374 5.599 219.622 5.72278L220.734 5.97166C221.386 6.0812 221.989 6.38453 222.465 6.84206C222.959 7.21602 223.084 7.71378 223.084 8.4604C223.084 9.33211 222.712 9.95364 222.093 10.5765C221.349 11.0742 220.36 11.3244 219.248 11.3244ZM24.7277 42.9378C19.1665 42.9378 14.7167 41.0706 11.381 37.3362C8.04405 33.7269 6.31366 28.8732 6.31366 22.899C6.31366 17.0485 8.04405 12.1948 11.6286 8.4604C15.0894 4.72599 19.5378 2.86009 24.8515 2.86009C27.9409 2.86009 30.6602 3.48292 32.8845 4.72729C34.9849 5.84787 36.0977 7.34111 36.0977 8.95944C36.0977 9.95493 35.7276 10.8266 34.9849 11.6984C34.2435 12.445 33.3783 12.8189 32.5131 12.8189C31.8955 12.8189 30.7827 12.5701 29.0523 12.0723C27.4457 11.5746 26.0867 11.3257 24.8502 11.3257C22.1308 11.3257 19.9066 12.445 18.1762 14.5611C16.4471 16.6771 15.7057 19.5398 15.7057 23.1504C15.7057 26.6347 16.5709 29.3723 18.1762 31.4883C19.9066 33.4793 22.2546 34.4761 25.0977 34.4761C26.4568 34.4761 28.0634 34.2273 29.7938 33.6044C31.5241 32.8578 32.6369 32.6076 33.1307 32.6076C33.5807 32.6087 34.0248 32.7099 34.4309 32.9037C34.8369 33.0975 35.1949 33.3791 35.4788 33.7282C36.2202 34.4748 36.5915 35.3452 36.5915 36.342C36.5915 38.0841 35.4787 39.7025 33.1307 40.9468C30.9078 42.1912 28.0647 42.9378 24.7277 42.9378ZM40.5461 5.97166C40.5461 4.72599 41.04 3.48162 41.9052 2.61121C42.8941 1.61572 44.0069 1.11798 45.3659 1.11798C46.6025 1.11798 47.7139 1.61572 48.7029 2.61121C49.6906 3.48162 50.062 4.72729 50.062 5.97166C50.062 7.34111 49.6906 8.4604 48.7029 9.45719C47.8377 10.3276 46.725 10.8253 45.3659 10.8253C44.0069 10.8253 42.8954 10.3276 41.9052 9.45719C41.0413 8.4604 40.5461 7.34111 40.5461 5.97166ZM49.4443 35.9681C49.4443 38.0841 49.0743 39.5787 48.4553 40.698C47.8377 41.6948 46.725 42.1912 45.3659 42.1912C43.8831 42.1912 42.8954 41.5684 42.1527 40.5729C41.5338 39.5774 41.1637 38.0841 41.1637 35.9681V19.1646C41.1637 17.0485 41.5338 15.5552 42.1527 14.5597C42.8941 13.5643 43.8831 13.0665 45.3659 13.0665C46.725 13.0665 47.8377 13.5643 48.4553 14.5597C49.0743 15.5565 49.4443 17.0485 49.4443 19.1646V35.9681ZM63.78 27.5051C63.78 29.4961 64.2738 31.2382 65.2628 32.4825C66.2517 33.852 67.6108 34.4748 69.2174 34.4748C70.824 34.4748 72.183 33.8507 73.172 32.4825C74.161 31.2382 74.6548 29.4961 74.6548 27.5051C74.6548 25.2639 74.161 23.6469 73.172 22.2774C72.183 21.0318 70.824 20.2851 69.2174 20.2851C67.6108 20.2851 66.2517 21.0318 65.2628 22.2774C64.2738 23.6469 63.78 25.389 63.78 27.5051ZM74.7786 39.4536C73.9134 40.3253 72.9244 41.0719 71.813 41.5697C70.5974 42.0677 69.2957 42.3214 67.9821 42.3163C64.5227 42.3163 61.5557 40.8231 58.9614 37.9591C56.4897 35.0977 55.1306 31.487 55.1306 27.38C55.1306 23.1491 56.3659 19.6636 58.9614 16.8009C61.4332 13.9382 64.3989 12.5688 67.9821 12.5688C69.3425 12.5688 70.4539 12.6938 71.5667 13.1916C72.6795 13.5656 73.6671 14.1884 74.5323 14.9337V7.34112C74.5323 5.22504 74.9024 3.60671 75.6451 2.61121C76.2627 1.61572 77.3755 1.11798 78.7345 1.11798C80.0935 1.11798 81.2063 1.61572 81.8239 2.61121C82.5653 3.73049 82.8129 5.22504 82.8129 7.34112V35.9681C82.8129 38.0841 82.5653 39.7025 81.8239 40.698C81.2063 41.6948 80.0935 42.1912 78.7345 42.1912C77.8693 42.1912 77.1279 41.9423 76.5103 41.4446C75.8102 40.8986 75.2222 40.2226 74.7786 39.4536ZM98.5076 35.9681C98.5076 38.0841 98.26 39.5787 97.5186 40.698C96.901 41.6948 95.7882 42.1912 94.4292 42.1912C93.0701 42.1912 91.9574 41.5684 91.3384 40.5729C90.597 39.5774 90.2257 38.0841 90.2257 35.9681V19.1646C90.2257 17.0485 90.597 15.5552 91.3384 14.5597C91.9574 13.5643 92.945 13.0665 94.4292 13.0665C95.7882 13.0665 96.901 13.5643 97.5186 14.5597C98.26 15.5565 98.5076 17.0485 98.5076 19.1646V35.9681ZM104.315 37.3375C104.315 35.9681 104.809 34.8488 105.798 33.852C106.663 32.9816 107.776 32.4825 109.135 32.4825C110.494 32.4825 111.607 32.9816 112.472 33.852C113.461 34.8488 113.955 35.9681 113.955 37.3375C113.955 38.707 113.461 39.8276 112.472 40.698C111.607 41.6948 110.494 42.1912 109.135 42.1912C107.776 42.1912 106.664 41.6935 105.675 40.698C104.81 39.8276 104.315 38.7057 104.315 37.3375Z" fill="white"/>
<path fill-rule="evenodd" clip-rule="evenodd" d="M94.4292 1.11768C97.1472 1.11768 99.3715 3.35884 99.3715 5.97266C99.3715 8.71157 97.1472 10.8263 94.4292 10.8263C91.7098 10.8263 89.6094 8.71027 89.6094 5.97266C89.6094 3.35753 91.7098 1.11768 94.4292 1.11768Z" fill="white"/>
</svg>
