<svg width="214" height="47" viewBox="0 0 214 47" fill="none" xmlns="http://www.w3.org/2000/svg">
<path fill-rule="evenodd" clip-rule="evenodd" d="M185.624 0.25908C185.691 0.347968 185.752 0.441718 185.816 0.562265C185.876 0.680377 185.943 0.824068 186.001 0.986014C186.059 1.14674 186.113 1.32573 186.171 1.55587C186.228 1.78478 186.292 2.06362 186.333 2.24871C186.375 2.43379 186.397 2.52755 186.413 2.58478C186.42 2.61813 186.432 2.64994 186.451 2.67854C186.515 2.87945 186.596 3.07549 186.663 3.207C186.727 3.33728 186.779 3.40304 186.855 3.47488C186.93 3.54672 187.033 3.62343 187.14 3.6904C187.268 3.54671 187.399 3.40547 187.604 3.14489C187.806 2.88554 188.085 2.50563 188.362 2.12816C188.402 2.04437 188.449 1.96412 188.502 1.88829C188.589 1.76535 188.699 1.66068 188.826 1.58022C188.885 1.54443 188.948 1.51543 189.014 1.49377C189.093 1.46914 189.174 1.45081 189.256 1.43897C189.344 1.42558 189.434 1.41462 189.503 1.40609C189.575 1.40001 189.63 1.39149 189.673 1.38175C189.707 1.37344 189.74 1.359 189.77 1.33912C189.837 1.3446 189.903 1.36366 189.962 1.39514C189.982 1.41097 190 1.42558 190.015 1.44628C190.03 1.46475 190.041 1.48636 190.048 1.5096C190.058 1.53645 190.063 1.56494 190.062 1.59361C190.057 1.6909 190.033 1.78633 189.993 1.87489C189.96 1.95596 189.921 2.0345 189.876 2.1099C189.807 2.23027 189.731 2.34692 189.649 2.45936C189.54 2.61157 189.393 2.8137 189.24 3.0073C189.093 3.23622 188.941 3.46513 188.744 3.87548C188.544 4.28583 188.297 4.87639 188.047 5.46817C188.282 5.54001 188.518 5.61428 188.882 5.64351C189.251 5.67151 189.746 5.6569 190.242 5.64107C190.739 5.65934 191.238 5.67395 191.56 5.71048C191.886 5.74822 192.034 5.80667 192.183 5.86512C192.243 5.88338 192.298 5.90286 192.343 5.92234C192.388 5.93939 192.418 5.95765 192.45 5.97348C192.471 5.98659 192.491 6.00168 192.51 6.01854C192.569 6.07333 192.572 6.12082 192.55 6.17074C192.539 6.1895 192.527 6.20705 192.512 6.2231C192.49 6.24867 192.457 6.28155 192.437 6.30347C192.422 6.31565 192.408 6.32954 192.396 6.34486C192.377 6.36391 192.359 6.38516 192.344 6.40818C192.159 6.55917 191.942 6.66754 191.638 6.73329C191.336 6.79905 190.946 6.82096 190.689 6.83558L190.178 6.85993L189.783 6.8782C189.739 6.89712 189.691 6.90585 189.643 6.90376C189.555 6.90744 189.466 6.90744 189.377 6.90376C189.277 6.90133 189.177 6.89525 189.082 6.89038C188.997 6.88432 188.911 6.88228 188.825 6.88428C188.762 6.88485 188.699 6.89304 188.638 6.90864C188.588 6.91742 188.54 6.93299 188.495 6.9549C188.426 6.98614 188.369 7.03807 188.331 7.10346C188.309 7.13517 188.294 7.17072 188.286 7.20817C188.275 7.25175 188.269 7.29617 188.266 7.3409C188.328 7.51746 188.366 7.70011 188.386 7.89858C188.403 8.09706 188.398 8.30649 188.381 8.49401C188.366 8.67909 188.34 8.84348 188.316 9.00664C188.292 9.17103 188.271 9.33419 188.274 9.46691C188.274 9.5972 188.295 9.69583 188.336 9.78837C188.41 10.0282 188.485 10.2681 188.543 10.715C188.605 11.1594 188.652 11.8145 188.697 12.466C188.64 12.4112 188.59 12.3527 188.535 12.2736C188.481 12.1944 188.421 12.0982 188.358 11.9619C188.293 11.8262 188.234 11.6881 188.18 11.5479C188.137 11.4456 188.13 11.42 188.115 11.3884C188.1 11.3558 188.085 11.3237 188.068 11.2922C187.946 11.375 187.818 11.3798 187.704 11.2556C187.643 11.1801 187.593 11.096 187.556 11.006C187.533 10.9415 187.512 10.8761 187.494 10.81C187.477 10.7364 187.464 10.662 187.454 10.5871L187.057 8.83739C186.969 8.47088 186.952 8.43192 186.938 8.39295C186.933 8.35351 186.923 8.31474 186.91 8.27728C186.871 8.16618 186.816 8.06121 186.748 7.96555C186.633 7.80482 186.508 7.71715 186.391 7.71472C186.307 7.72114 186.228 7.7516 186.161 7.80239C186.141 7.81822 186.123 7.83283 186.106 7.85353C186.094 7.86449 186.084 7.87788 186.068 7.89493C186.056 7.91563 186.04 7.93633 186.006 7.9826C185.878 8.16271 185.752 8.34373 185.626 8.52567C185.536 8.66326 185.427 8.82521 185.324 8.98229C185.22 9.13936 185.12 9.29036 185.044 9.40847L184.87 9.66782L184.79 9.78837C184.773 9.81029 184.77 9.81638 184.765 9.81881C184.761 9.8249 184.763 9.82003 184.763 9.81881C184.719 9.89171 184.668 9.96021 184.611 10.0234C184.556 10.0867 184.496 10.1451 184.434 10.1963C184.252 10.3509 184.052 10.4447 183.851 10.4824C183.791 10.4924 183.73 10.4973 183.668 10.497C183.569 10.4958 183.471 10.4734 183.381 10.4313C183.346 10.4134 183.313 10.3909 183.284 10.3643C183.244 10.3283 183.214 10.2831 183.196 10.2328C183.179 10.1825 183.173 10.1285 183.181 10.0757C183.185 10.031 183.195 9.987 183.212 9.94544C183.258 9.82613 183.327 9.71724 183.416 9.6252C183.462 9.51426 183.516 9.40647 183.576 9.30253C183.621 9.22338 183.676 9.12719 183.763 8.99325C183.937 8.72293 184.215 8.31624 184.457 7.9619L184.772 7.49432C184.854 7.37256 184.902 7.29585 184.934 7.24349L184.988 7.14486C184.993 7.13282 184.997 7.12064 185 7.10834C185.003 7.10103 185.003 7.09738 185 7.09494C185 7.09129 184.998 7.09129 184.996 7.09129C185.028 7.01945 185.06 6.95004 185.083 6.88428C185.082 6.82882 185.075 6.77365 185.061 6.71991C185.033 6.62407 184.975 6.53993 184.895 6.48002C184.845 6.4411 184.789 6.41028 184.73 6.3887C184.616 6.34665 184.498 6.31646 184.378 6.2986C184.113 6.25388 183.847 6.21692 183.579 6.18779C183.153 6.15979 182.733 6.12935 182.476 6.09647C182.222 6.06359 182.137 6.0295 182.048 5.99419C181.977 5.94656 181.908 5.89493 181.843 5.83955C181.755 5.77017 181.674 5.69227 181.601 5.60698C181.502 5.49173 181.405 5.37441 181.311 5.25508C181.237 5.16375 181.216 5.13331 181.184 5.098C181.159 5.0618 181.13 5.02761 181.099 4.99572C181.075 4.97137 181.059 4.96528 181.044 4.96528C181.204 4.92631 181.363 4.88735 181.553 4.88004C181.743 4.87395 181.965 4.8983 182.187 4.92144C182.681 5.00667 183.18 5.08948 183.447 5.13088C183.718 5.17228 183.758 5.16984 183.804 5.16741C184.123 5.19541 184.44 5.2222 184.759 5.22828C185.078 5.23437 185.399 5.2222 185.718 5.20637C185.691 5.17709 185.667 5.14574 185.646 5.11262C185.602 4.81489 185.542 4.51978 185.466 4.2286C185.282 3.51455 185.091 2.8022 184.895 2.09163C184.87 1.92709 184.855 1.76119 184.849 1.59484C184.844 1.23644 184.863 0.878091 184.904 0.522086C184.911 0.43038 184.927 0.339691 184.954 0.251769C184.968 0.205531 184.987 0.161012 185.011 0.119044C185.054 0.0459853 185.094 0.0228558 185.139 0.0070264C185.164 0.000938173 185.189 -0.00150306 185.217 0.000932227C185.252 0.00621402 185.285 0.016469 185.317 0.0313752C185.396 0.0557281 185.512 0.145839 185.624 0.25908ZM167.236 11.4967C169.085 11.4809 170.929 11.4663 172.257 11.5527C173.581 11.6428 174.385 11.8365 175.191 12.0288C175.273 12.0428 175.353 12.0699 175.426 12.1092C175.541 12.164 175.709 12.2553 175.885 12.3491L176.414 12.6352C176.725 12.7777 177.04 12.9189 177.262 13.0395C177.489 13.1588 177.624 13.2599 177.757 13.3585C177.944 13.5144 178.133 13.6714 178.518 13.96C178.905 14.2498 179.491 14.6711 180.07 15.0949C180.607 15.5198 181.145 15.9436 181.612 16.3868C182.081 16.8288 182.475 17.2891 182.872 17.7493C183.024 17.9393 183.174 18.1305 183.376 18.4044C183.578 18.6772 183.83 19.0303 184.085 19.3834C184.19 19.4492 184.294 19.5137 184.461 19.7585C184.625 20.0032 184.853 20.4257 185.082 20.847C185.339 21.1867 185.563 21.5496 185.841 22.0963C186.117 22.6431 186.449 23.3785 186.642 24.0044C186.837 24.6327 186.896 25.1563 186.939 25.507C186.982 25.8576 187.011 26.0403 187.049 26.2655C187.084 26.4908 187.131 26.7587 187.173 27.0619C187.215 27.3663 187.258 27.7048 187.29 28.0457C187.212 29.289 187.135 30.5322 186.748 31.7815C186.363 33.0332 185.668 34.2923 184.976 35.5513C184.227 36.5291 183.478 37.5044 183.05 38.039C182.621 38.576 182.51 38.6721 182.401 38.7683C181.849 39.2919 181.285 39.8009 180.874 40.1491C180.462 40.4986 180.205 40.6886 179.808 40.9905C179.411 41.2937 178.878 41.7138 178.344 42.1327C177.5 42.7135 176.655 43.2931 175.701 43.8203C174.743 44.35 173.678 44.8225 172.612 45.2961C172.353 45.3802 172.096 45.4642 171.63 45.5616C171.168 45.6602 170.502 45.7734 169.833 45.8855C169.614 45.9244 169.394 45.9488 169.11 45.9549C168.83 45.9598 168.484 45.9464 168.123 45.9464C167.756 45.9439 167.369 45.9537 166.985 45.9658C166.286 45.9731 165.59 45.978 165.092 45.9646C164.594 45.9512 164.298 45.9208 164.001 45.8891C163.921 45.8481 163.834 45.8217 163.744 45.8112C163.586 45.7869 163.427 45.7691 163.268 45.7576C163.09 45.7394 162.916 45.7247 162.742 45.7004C162.574 45.6787 162.409 45.6466 162.245 45.6042C162.014 45.5423 161.799 45.431 161.614 45.2779C161.27 45.1841 160.925 45.0903 160.641 44.9698C160.358 44.8493 160.135 44.7031 159.913 44.5582L158.322 43.9969C157.948 43.8666 157.81 43.8203 157.72 43.7826C157.657 43.7613 157.597 43.7305 157.543 43.6913C157.003 43.3016 156.465 42.9083 155.938 42.4834C155.409 42.0584 154.894 41.5994 154.375 41.1415C153.8 40.529 153.222 39.9154 152.756 39.1677C152.29 38.4201 151.935 37.5385 151.583 36.6569C151.068 35.3537 150.761 33.9776 150.673 32.579C150.585 31.1727 150.725 29.7358 150.944 28.3587C151.163 26.9827 151.463 25.6653 151.862 24.3806C152.05 24.0068 152.236 23.6318 152.357 23.3968C152.478 23.1593 152.531 23.0595 152.583 22.9535C152.638 22.8476 152.69 22.7356 152.743 22.6248C153.311 21.5094 153.882 20.3977 154.472 19.4833C155.056 18.5712 155.664 17.8565 156.27 17.143C156.448 16.8994 156.634 16.6547 156.822 16.4124C157.452 15.7293 158.082 15.0462 159.057 14.3752C160.028 13.7031 161.348 13.0444 162.668 12.3856C162.96 12.2565 163.252 12.1287 163.561 12.0361C163.868 11.9424 164.187 11.8876 164.51 11.8328C165.416 11.6981 166.325 11.5861 167.236 11.4967ZM169.837 12.4745C168.969 12.4611 168.103 12.4465 167.262 12.5573C166.423 12.6657 165.607 12.897 164.791 13.1308C164.517 13.2696 164.242 13.4121 163.958 13.5619C163.673 13.7128 163.38 13.8736 163.09 14.0379C162.97 14.112 162.85 14.1875 162.731 14.2644C162.641 14.3217 162.596 14.3521 162.524 14.3959C162.455 14.4373 162.357 14.4909 162.262 14.5445C162.212 14.5703 162.163 14.6001 162.117 14.6334C162.07 14.6663 162.03 14.7016 161.991 14.7357C161.929 14.7895 161.877 14.8543 161.838 14.9268C161.825 14.95 161.816 14.9751 161.81 15.0011C161.801 15.0693 161.796 15.1302 161.898 15.1935C161.923 15.207 161.949 15.2172 161.976 15.2239C162.016 15.2348 162.057 15.2418 162.098 15.2446C162.145 15.2483 162.2 15.2507 162.26 15.2483C162.424 15.1728 162.59 15.0936 162.901 14.9865C163.213 14.8818 163.672 14.7466 164.134 14.6127C164.478 14.6017 164.823 14.5969 165.072 14.6017C165.322 14.6066 165.477 14.6188 165.676 14.6212C165.874 14.6249 166.116 14.6188 166.36 14.6066C167.199 14.5628 168.041 14.5189 168.543 14.4897C169.047 14.4617 169.214 14.4507 169.43 14.4398C169.65 14.4288 169.917 14.4203 170.187 14.4142C171.057 14.3777 171.928 14.3387 172.546 14.3728C173.17 14.4069 173.538 14.5141 173.909 14.6212C174.646 14.7758 175.386 14.9305 175.935 15.1119C176.484 15.2897 176.846 15.4979 177.208 15.7025C177.652 15.9545 178.096 16.2041 178.39 16.3417C178.685 16.4806 178.832 16.5049 178.977 16.5293C178.981 16.4174 178.958 16.3062 178.91 16.2054C178.839 16.0435 178.744 15.893 178.63 15.7585C178.454 15.5451 178.258 15.3487 178.045 15.1716C177.791 14.9559 177.521 14.7598 177.237 14.5847C176.989 14.4302 176.727 14.2997 176.454 14.195C175.486 13.7482 174.518 13.2988 173.415 13.0103C172.311 12.7266 171.074 12.5999 169.837 12.4745ZM170.437 16.9554C170.43 16.9625 170.42 16.9672 170.409 16.9688C170.397 16.9713 170.381 16.9688 170.355 16.9603C170.305 16.9421 170.258 16.9176 170.215 16.8872C170.111 16.8258 170.008 16.7633 169.905 16.6997C169.793 16.6279 169.679 16.5585 169.577 16.4952C169.416 16.3901 169.24 16.3081 169.057 16.2516C168.996 16.2323 168.934 16.2177 168.872 16.2078C168.814 16.1993 168.764 16.1968 168.717 16.1993C168.674 16.2004 168.631 16.207 168.589 16.2188C168.47 16.2482 168.365 16.3195 168.294 16.4197C168.265 16.4613 168.239 16.5048 168.216 16.55C168.192 16.5987 168.171 16.6571 168.149 16.7229C168.128 16.7944 168.11 16.8672 168.097 16.9408C168.047 17.0102 167.992 17.048 167.945 17.048C167.926 17.0476 167.908 17.0456 167.89 17.0419C167.864 17.0318 167.839 17.0192 167.816 17.0041C167.775 16.9764 167.735 16.9472 167.697 16.9165L167.592 16.8385C167.542 16.8032 167.49 16.7707 167.437 16.7411C167.343 16.6876 167.241 16.6487 167.135 16.6254C166.927 16.5492 166.702 16.5303 166.484 16.5707C166.224 16.6108 165.91 16.7107 165.468 16.9177C165.024 17.1247 164.45 17.4388 163.901 17.7883C163.267 18.29 162.631 18.7892 162.108 19.2604C161.582 19.7329 161.169 20.1785 160.755 20.623C160.193 21.4266 159.627 22.2303 159.247 23.1472C158.863 24.0653 158.663 25.0954 158.461 26.1243C158.361 27.0193 158.263 27.913 158.246 28.6314C158.229 29.3486 158.296 29.8893 158.363 30.4323C158.411 30.6138 158.461 30.7952 158.54 31.1702C158.618 31.5453 158.72 32.1139 158.825 32.6813C158.96 33.1185 159.094 33.558 159.229 33.955C159.364 34.3519 159.501 34.705 159.636 35.0606C159.798 35.5734 160.049 36.0538 160.377 36.4804C160.706 36.9041 161.116 37.2694 161.804 37.8137C162.671 38.4895 163.557 39.1384 164.464 39.7595C164.818 39.9689 165.208 40.1236 165.646 40.2222C166.083 40.3221 166.574 40.3683 166.988 40.3549C167.402 40.3415 167.744 40.2721 168.065 40.1455C169.003 39.8874 169.939 39.6304 170.71 39.309C171.481 38.9875 172.078 38.6076 172.682 38.2216C173.33 37.6046 173.945 36.9526 174.523 36.2685C174.972 35.723 175.194 35.3638 175.346 35.0496C175.498 34.7355 175.586 34.4652 175.631 34.19C175.878 33.4874 176.125 32.7873 176.268 32.3002C176.412 31.8156 176.455 31.544 176.498 31.2713C176.564 29.9511 176.488 28.6276 176.271 27.3237C176.048 25.9561 175.659 24.6207 175.113 23.3469C174.525 21.9872 173.807 20.6872 172.97 19.465C172.229 18.3923 171.55 17.6812 170.777 17.0869L170.437 16.9554ZM178.473 17.641C178.073 17.3402 177.679 17.0394 177.4 16.8605C177.126 16.6815 176.971 16.6255 176.817 16.5682C176.79 16.701 176.812 16.8387 176.879 16.9566C176.923 17.0374 176.978 17.1116 177.043 17.177C177.048 17.1929 177.058 17.205 177.086 17.2355C177.116 17.2659 177.166 17.3122 177.373 17.4827C177.58 17.6507 177.947 17.9381 178.312 18.2242C178.442 18.3326 178.569 18.4446 178.704 18.5956C178.837 18.7454 178.978 18.9378 179.116 19.1289C179.24 19.2811 179.36 19.4346 179.453 19.5478C179.543 19.6598 179.603 19.7329 179.643 19.7877C179.688 19.8425 179.712 19.879 179.735 19.9143C179.966 20.2954 180.187 20.679 180.384 21.0333C180.579 21.3889 180.744 21.7116 180.891 21.949C181.033 22.1864 181.155 22.3374 181.343 22.8586C181.528 23.3822 181.782 24.2747 181.987 25.1599C182.191 26.0439 182.348 26.9182 182.463 27.7986C182.485 28.5328 182.491 29.267 182.478 29.8759C182.465 30.4847 182.43 30.9681 182.428 31.5246C182.423 32.0798 182.45 32.7105 182.502 33.3364C182.521 33.351 182.549 33.3644 182.571 33.3754C182.641 33.3997 182.702 33.401 182.761 33.3242C182.776 33.3072 182.787 33.2841 182.799 33.2548C182.811 33.2256 182.825 33.194 182.839 33.1294L182.877 32.9042L182.901 32.741C182.911 32.6813 182.926 32.601 182.939 32.5474C182.946 32.5107 182.957 32.4748 182.972 32.4402C183.181 31.6536 183.393 30.8634 183.469 30.0147C183.547 29.166 183.493 28.2576 183.438 27.348C183.222 26.2607 183.001 25.177 182.737 24.2698C182.47 23.3615 182.159 22.6345 181.848 21.9052C181.387 20.9931 180.925 20.0811 180.364 19.37C179.802 18.6614 179.139 18.1512 178.473 17.641ZM174.48 16.7691C174.504 16.8775 174.54 16.9847 174.573 17.0614C174.598 17.1274 174.638 17.1869 174.689 17.2355C174.735 17.2818 174.797 17.3244 174.875 17.3877C174.95 17.451 175.044 17.5314 175.134 17.6142C175.524 17.9442 175.914 18.2717 176.177 18.5104C176.442 18.7478 176.579 18.8988 176.714 19.0474C176.891 19.2592 177.069 19.4662 177.233 19.6403C177.4 19.8157 177.55 19.9569 177.685 20.1116C177.822 20.2638 177.944 20.4294 178.056 20.6023C178.167 20.8127 178.264 21.0308 178.344 21.2549C178.515 21.6884 178.798 22.447 179.079 23.208C179.172 23.4552 179.276 23.6963 179.391 23.9228C179.505 24.1505 179.628 24.3612 179.726 24.5328C179.825 24.7082 179.9 24.8433 179.95 24.9724C180 25.1027 180.028 25.2257 180.035 25.3426C180.047 25.4569 180.04 25.5725 180.015 25.6847C180.037 26.1292 180.056 26.5748 180.115 27.5563C180.17 28.5377 180.27 30.0561 180.146 31.2956C180.022 32.5376 179.67 33.502 179.133 34.3519C178.722 35.0956 178.232 35.7933 177.673 36.4329C177.051 37.1483 176.372 37.8128 175.644 38.4201C174.971 38.9729 174.379 39.3431 173.743 39.6304C173.251 39.9495 172.761 40.2697 172.426 40.4572C172.206 40.5863 171.97 40.687 171.724 40.7567C171.645 40.7912 171.561 40.8142 171.475 40.8249C171.363 40.8408 171.203 40.8505 171.075 40.8615C170.968 40.8683 170.861 40.8788 170.754 40.8931C170.656 40.9079 170.559 40.9299 170.464 40.9589C170.317 41.0064 170.188 41.0983 170.095 41.2219C170.045 41.2859 170.005 41.3569 169.976 41.4325C169.941 41.5178 169.911 41.614 169.893 41.7138C170.026 41.8127 170.178 41.8813 170.34 41.9147C170.409 41.9258 170.479 41.9224 170.547 41.905C170.627 41.8855 170.725 41.8465 170.792 41.8173C170.861 41.7869 170.899 41.7686 171.001 41.7297C171.101 41.6907 171.265 41.6298 171.432 41.5726C172.326 41.4777 173.195 41.2215 173.998 40.8164C174.797 40.4061 175.525 39.8386 176.336 39.1312C177.226 38.3581 178.08 37.5442 178.895 36.6922C179.489 35.9434 180.087 35.1933 180.474 34.5796C180.869 33.9696 181.055 33.4959 181.245 33.0247C181.519 31.9958 181.79 30.9693 181.882 30.1888C181.975 29.4107 181.882 28.8859 181.792 28.3575C181.825 27.7352 181.775 27.1142 181.575 26.2448C181.351 25.3132 181.079 24.3935 180.762 23.4893C180.493 22.7234 180.303 22.3155 180.075 21.9295C179.578 21.284 179.07 20.6463 178.553 20.0166C178.088 19.4428 177.611 18.8793 177.121 18.3265C176.719 17.8845 176.432 17.6178 176.158 17.4145C175.905 17.2304 175.628 17.082 175.335 16.9737C175.059 16.8727 174.772 16.8041 174.48 16.7691ZM157.742 17.4668C157.79 17.3873 157.831 17.3033 157.863 17.216C157.882 17.1381 157.882 17.0699 157.82 17.0005C157.806 16.9871 157.792 16.9725 157.775 16.9615C157.495 17.1247 157.238 17.328 156.9 17.6787C156.565 18.0294 156.143 18.5311 155.744 19.0948C155.345 19.6574 154.966 20.2796 154.631 20.925C153.901 22.4251 153.169 23.924 152.702 25.1697C152.236 26.4129 152.032 27.3992 151.829 28.3867C151.794 28.8129 151.765 29.2354 151.747 29.6262C151.725 30.0159 151.716 30.3739 151.692 30.7501C151.667 31.1276 151.63 31.5246 151.597 31.8752C151.561 32.2259 151.53 32.534 151.709 33.474C151.887 34.4116 152.277 35.9836 152.829 37.2682C153.376 38.554 154.087 39.5525 154.965 40.3841C155.095 40.5278 155.234 40.6691 155.336 40.7689C155.443 40.87 155.514 40.9284 155.579 40.9771C155.648 41.0222 155.706 41.0563 155.759 41.0819C155.803 41.1037 155.849 41.1204 155.896 41.1318C155.934 41.1391 155.973 41.1412 156.011 41.1379C156.075 41.1307 156.135 41.1039 156.184 41.0612C155.846 40.5279 155.527 39.9828 155.228 39.4271C154.945 38.8889 154.724 38.3653 154.5 37.8393C154.302 37.3656 154.105 36.8932 153.974 36.5388C153.872 36.269 153.782 35.9947 153.705 35.7169C153.614 35.2989 153.508 34.8846 153.386 34.4749C153.246 34.0171 153.067 33.4886 152.929 32.618C152.758 31.5346 152.71 30.4354 152.786 29.3413C152.879 28.1529 153.165 26.9925 153.485 25.7992C153.806 24.6059 154.166 23.3797 154.628 22.3447C155.094 21.3061 155.665 20.4574 156.04 19.8948C156.414 19.3347 156.592 19.0607 156.773 18.7916C156.895 18.5798 157.015 18.3679 157.09 18.2437C157.161 18.1195 157.18 18.0842 157.211 18.0343C157.278 17.9143 157.364 17.8062 157.466 17.714C157.554 17.6276 157.645 17.5448 157.742 17.4668ZM173.457 17.3341C173.287 17.2706 173.112 17.2222 172.934 17.1892C172.749 17.1563 172.542 17.1515 172.335 17.1454C172.512 17.3999 172.691 17.6556 172.881 17.9198C173.066 18.1865 173.266 18.458 173.645 18.9865L175.012 20.8836C175.438 21.4778 175.728 21.8832 176.018 22.2911C176.315 22.8379 176.557 23.4187 176.736 24.0555C176.914 24.6924 177.029 25.3864 177.133 25.9076C177.24 26.4311 177.335 26.7831 177.416 27.0996C177.496 27.4162 177.561 27.6975 177.62 27.98C177.682 28.6814 177.747 29.3839 177.692 30.4311C177.637 31.4783 177.463 32.8688 177.288 34.2606C177.363 34.341 177.45 34.3495 177.523 34.3178C177.55 34.3066 177.576 34.2914 177.598 34.2728C177.624 34.2533 177.653 34.2277 177.686 34.1912C177.719 34.1547 177.758 34.1084 177.798 34.05C177.838 33.9903 177.883 33.9197 177.943 33.8052C178.003 33.692 178.081 33.5385 178.152 33.3839C178.383 32.92 178.611 32.4524 178.776 31.8947C178.938 31.3383 179.035 30.688 179.135 30.0378C179.12 29.1063 179.107 28.1785 179 27.2896C178.893 26.4007 178.691 25.5532 178.491 24.707C178.079 23.426 177.673 22.1462 177.106 21.11C176.54 20.0738 175.819 19.2824 175.095 18.4909C174.917 18.3229 174.741 18.1524 174.467 17.96C174.194 17.7652 173.829 17.5496 173.457 17.3341ZM181.142 17.5472C181.072 17.7837 181.061 18.0338 181.111 18.2754C181.159 18.4848 181.268 18.6309 181.354 18.7539C181.441 18.8732 181.506 18.9658 181.706 19.325C181.908 19.6854 182.245 20.3113 182.586 21.0759C182.927 21.8406 183.27 22.749 183.569 23.6695C183.59 23.7609 183.609 23.8522 183.723 24.1347C183.835 24.4172 184.045 24.8896 184.252 25.3621C184.302 25.507 184.359 25.6482 184.384 25.7663C184.415 25.882 184.42 25.9709 184.425 26.0585C184.549 26.9742 184.629 27.8972 184.664 28.8177C184.7 29.7371 184.684 30.6552 184.672 31.348L184.646 32.9796C184.589 33.071 184.618 33.1623 184.686 33.2646C184.738 33.3339 184.806 33.3895 184.884 33.4265C184.966 33.457 185.053 33.4752 185.133 33.3742C185.143 33.3583 185.155 33.3413 185.164 33.3194C185.185 33.2607 185.197 33.1991 185.199 33.1367C185.263 32.8311 185.326 32.5267 185.363 32.3282C185.404 32.1273 185.418 32.0384 185.439 31.9288C185.46 31.8192 185.489 31.695 185.519 31.5708C185.766 30.6223 186.011 29.6725 186.043 28.8177C186.071 27.9629 185.883 27.2019 185.696 26.4409C185.461 25.7382 185.239 25.0314 185.03 24.321C184.882 23.812 184.845 23.6026 184.697 23.2153C184.489 22.7015 184.256 22.1977 184.001 21.7055C183.97 21.6361 183.941 21.5654 183.672 21.1819C183.4 20.7971 182.894 20.0957 182.39 19.3956C182.23 19.1557 182.068 18.9158 181.945 18.7259C181.819 18.5384 181.731 18.4008 181.606 18.2133C181.474 18.0245 181.31 17.7859 181.142 17.5472ZM155.701 24.2236C155.694 24.2236 155.684 24.2211 155.677 24.2077L155.672 24.1822C155.67 24.1619 155.67 24.1415 155.672 24.1213L155.687 23.9861C155.694 23.9472 155.697 23.9228 155.701 23.8838C155.706 23.8449 155.711 23.7901 155.714 23.7462C155.719 23.6873 155.716 23.628 155.706 23.5697C155.702 23.5511 155.696 23.5331 155.687 23.5161C155.678 23.4904 155.664 23.467 155.644 23.4479C155.569 23.3846 155.502 23.3992 155.42 23.4175C155.386 23.4252 155.352 23.437 155.32 23.4528C155.29 23.4689 155.263 23.4904 155.24 23.5161C155.215 23.5437 155.195 23.5744 155.178 23.6074C155.147 23.6558 155.127 23.7102 155.118 23.7669C155.099 23.8473 155.085 23.9654 155.076 24.0482C155.063 24.1286 155.059 24.1748 155.05 24.2516C155.038 24.3258 155.022 24.4293 155.003 24.5121C154.98 24.6339 154.931 24.7493 154.86 24.8506C154.832 24.8906 154.799 24.927 154.763 24.959C154.738 25.0175 154.715 25.0771 154.635 25.4327C154.557 25.787 154.416 26.4385 154.276 27.0911C154.218 27.25 154.169 27.4118 154.128 27.5757C154.103 27.6614 154.088 27.7496 154.083 27.8387C154.083 27.8996 154.086 27.9544 154.095 27.9995C154.115 28.0826 154.158 28.158 154.221 28.2162C154.536 27.7492 154.811 27.2568 155.044 26.7441C155.27 26.24 155.448 25.7298 155.558 25.3085C155.666 24.8847 155.706 24.556 155.701 24.2236ZM155.566 34.0755C155.533 33.7967 155.499 33.5178 155.492 33.1343C155.482 32.7507 155.497 32.2625 155.512 31.7717C155.544 31.1909 155.581 30.6138 155.557 30.2083C155.532 29.804 155.449 29.5775 155.369 29.3486C155.313 29.3736 155.26 29.4073 155.214 29.4485C155.153 29.5044 155.103 29.5708 155.065 29.6445C155 29.7668 154.946 29.8943 154.903 30.0256C154.843 30.2071 154.783 30.3861 154.688 30.8853C154.596 31.3821 154.469 32.1979 154.341 33.0137C154.399 33.5592 154.456 34.1047 154.66 34.7026C154.865 35.3017 155.212 35.9568 155.561 36.6107C155.664 36.7592 155.768 36.9078 155.828 36.9881C155.885 37.0673 155.895 37.0782 155.971 37.1732C156.049 37.267 156.195 37.4472 156.34 37.6408C156.487 37.8344 156.629 38.0414 156.768 38.2557C157.272 38.8183 157.826 39.3358 158.333 39.7218C158.837 40.1053 159.291 40.3574 159.686 40.5193C160.078 40.6813 160.419 40.7507 160.763 40.7592C160.255 40.2295 159.734 39.7118 159.201 39.2067C158.789 38.8207 158.542 38.6234 158.213 38.3166C157.885 38.0097 157.477 37.5909 157.079 37.1623C156.667 36.5145 156.256 35.8691 156.003 35.3553C155.808 34.9474 155.661 34.5178 155.566 34.0755ZM157.571 31.913C157.438 32.3952 157.376 32.8968 157.388 33.3936C157.403 33.8917 157.49 34.3824 157.725 35.0168C157.963 35.6499 158.349 36.4256 158.803 37.1525C158.972 37.3534 159.138 37.5519 159.352 37.7613C159.569 37.9708 159.834 38.1887 160.101 38.4043C160.131 38.2947 160.158 38.1814 160.163 38.0877C160.17 38.0052 160.163 37.9221 160.143 37.8417C160.116 37.7406 160.07 37.6453 160.008 37.5604C159.89 37.3871 159.762 37.2212 159.624 37.0636C159.184 36.355 158.741 35.6475 158.399 34.7903C158.06 33.9306 157.815 32.9224 157.571 31.913ZM182.495 34.1328C182.504 34.1108 182.51 34.0873 182.512 34.0633C182.514 33.9595 182.479 33.8581 182.414 33.7772C182.39 33.7455 182.362 33.7163 182.334 33.6907C182.306 33.6652 182.274 33.6445 182.241 33.6274C182.214 33.6971 182.198 33.7707 182.194 33.8454C182.182 34.0146 182.234 34.2484 182.334 34.4725C182.359 34.3478 182.414 34.2312 182.495 34.1328ZM182.625 36.4694C182.737 36.3416 182.844 36.2101 182.924 36.1029C183.036 35.9641 183.133 35.8144 183.214 35.656C183.235 35.6133 183.253 35.5689 183.267 35.5233C183.279 35.4856 183.284 35.4551 183.286 35.4295C183.288 35.404 183.286 35.3821 183.281 35.3614C183.279 35.3442 183.274 35.3277 183.265 35.3128C183.257 35.2979 183.245 35.285 183.231 35.2749C183.215 35.2627 183.198 35.2532 183.179 35.2469C183.134 35.2311 183.067 35.2238 183.001 35.2311C182.725 35.5501 182.452 35.8679 182.271 36.0822C182.09 36.2941 182.006 36.4 181.921 36.4999C181.835 36.6009 181.744 36.698 181.65 36.7909C181.134 37.2881 180.607 37.774 180.07 38.2484C179.561 38.6892 179.083 39.0667 178.601 39.4441C178.18 39.6847 177.768 39.9402 177.366 40.21C177.163 40.3392 176.975 40.4912 176.807 40.663C176.619 40.8483 176.49 41.0858 176.438 41.3449C176.45 41.3558 176.466 41.3668 176.483 41.3717C176.5 41.3814 176.513 41.3851 176.54 41.3899C176.567 41.3948 176.6 41.396 176.633 41.396C177.371 41.1304 178.08 40.7923 178.752 40.3866C179.441 39.9762 180.114 39.488 180.775 38.8341C181.436 38.1802 182.083 37.3546 182.625 36.4694ZM161.985 40.9479C161.967 40.9272 161.949 40.9114 161.925 40.8943C161.901 40.8773 161.868 40.8627 161.832 40.8469C161.708 40.8039 161.575 40.7906 161.444 40.8079C161.411 40.8144 161.38 40.8238 161.349 40.8359C161.327 40.8464 161.306 40.8595 161.287 40.8749C161.227 40.9321 161.23 40.9844 161.237 41.0429C161.255 41.1125 161.289 41.1772 161.334 41.2328C161.449 41.3071 161.567 41.379 161.656 41.4252C161.741 41.4727 161.793 41.4946 161.838 41.5093C161.883 41.5239 161.926 41.5336 161.963 41.5348C162.053 41.5409 162.127 41.5287 162.205 41.452C162.227 41.4277 162.25 41.4021 162.269 41.368C162.289 41.3339 162.307 41.2925 162.324 41.2475C162.293 41.1987 162.255 41.1545 162.212 41.116C162.143 41.0597 162.071 41.0081 161.996 40.9613C161.993 40.9561 161.989 40.9515 161.985 40.9479ZM159.559 41.9233C159.538 41.9017 159.512 41.8861 159.484 41.8782C159.416 41.8577 159.344 41.8539 159.274 41.8672C159.248 41.8721 159.227 41.8758 159.205 41.8819C159.185 41.8916 159.167 41.8989 159.152 41.9074C159.138 41.9135 159.127 41.9233 159.115 41.9318C159.05 41.9975 159.089 42.0523 159.157 42.112L159.217 42.1558C159.479 42.3884 159.766 42.5942 160.085 42.7732C160.406 42.9509 160.763 43.1044 161.086 43.2042C161.409 43.3041 161.702 43.3503 161.949 43.3589C162.199 43.3686 162.403 43.3345 162.596 43.27C162.593 43.1972 162.564 43.1279 162.515 43.0739C162.486 43.0374 162.451 43.0051 162.413 42.9777C162.343 42.9265 162.267 42.8836 162.187 42.8499C162.062 42.789 161.87 42.7038 161.678 42.6246C161.523 42.5637 161.371 42.5004 161.019 42.3835C160.667 42.2666 160.113 42.0937 159.559 41.9233ZM175.343 43.0946C175.248 42.9987 175.142 42.9145 175.027 42.8438C174.92 42.7788 174.801 42.7366 174.677 42.7196C174.512 42.6982 174.344 42.6982 174.178 42.7196C173.987 42.7619 173.799 42.8197 173.617 42.8925C173.307 43.0057 172.823 43.2018 172.335 43.4003C172.199 43.4502 172.061 43.5013 171.818 43.5878L170.881 43.9336C170.528 44.0391 170.182 44.1647 169.843 44.3098C169.517 44.4376 169.235 44.6592 169.035 44.9467C169.047 44.9515 169.059 44.9528 169.097 44.9467C169.162 44.9324 169.227 44.9162 169.292 44.898C169.394 44.8712 169.536 44.8273 169.708 44.7799C169.877 44.7299 170.077 44.6727 170.241 44.6325C170.403 44.5911 170.531 44.5643 170.663 44.5424C170.889 44.5473 171.114 44.5522 171.388 44.4864C171.66 44.4231 171.98 44.2904 172.299 44.1564C172.962 43.8896 173.629 43.6342 174.3 43.3905C174.805 43.2152 175.074 43.1543 175.343 43.0946Z" fill="white"/>
<path fill-rule="evenodd" clip-rule="evenodd" d="M0 15.6586H10.6666V19.997C12.202 18.1864 13.7497 16.8981 15.3119 16.1322C16.134 15.7368 17.0031 15.4475 17.8982 15.2714C18.9092 15.0729 19.9376 14.9766 20.9679 14.984C23.3447 14.984 25.226 15.4041 26.6104 16.2443C27.3033 16.6643 27.9328 17.1867 28.499 17.8126C29.0652 18.4385 29.5681 19.1666 30.0077 19.997C31.8 18.0561 33.4317 16.735 34.9062 16.0348C35.6931 15.6686 36.5233 15.4038 37.3769 15.247C38.3627 15.0648 39.3636 14.9768 40.3662 14.984C43.5576 14.984 46.0477 15.9362 47.8401 17.8394C48.7363 18.7916 49.4084 20.0117 49.8553 21.4996C50.3022 22.9876 50.5274 24.7446 50.5274 26.7708V45.5372H39.0742V28.5242C39.0742 27.8496 39.0097 27.2615 38.8794 26.7611C38.7727 26.3101 38.5733 25.8863 38.2937 25.5166C37.9126 25.0016 37.4852 24.6143 37.0116 24.3562C36.5321 24.0969 35.9944 23.9641 35.4493 23.9702C34.1111 23.9702 33.0335 24.4573 32.2165 25.4326C31.8086 25.9197 31.5005 26.5553 31.2971 27.3382C31.0926 28.1212 30.9903 29.0502 30.9903 30.1291V45.5372H19.5383V29.0442C19.5383 28.3866 19.5189 27.835 19.4823 27.3894C19.4458 26.9437 19.3886 26.6028 19.3143 26.3678C19.0916 25.6451 18.6499 25.0094 18.0504 24.5486C17.388 24.0421 16.6854 23.8606 15.9451 23.8582C14.6349 23.8582 13.5597 24.3562 12.7171 25.3522C12.2958 25.8503 11.9804 26.509 11.7698 27.326C11.5591 28.1431 11.4532 29.1209 11.4532 30.2569V45.5372H0V15.6586ZM88.3767 33.4058H65.4704C65.5726 34.3275 65.7492 35.1312 65.9964 35.8167C66.2448 36.5034 66.565 37.0721 66.9583 37.5238C67.4771 38.1471 68.1291 38.646 68.8664 38.9838C70.3896 39.6644 72.5351 39.7168 74.4809 38.6368C75.1287 38.2654 75.7923 37.6249 76.4742 36.775L87.7034 37.7856C85.9804 40.792 83.9007 42.946 81.4654 44.2525C80.2477 44.904 78.7658 45.3947 77.0197 45.721C75.2724 46.0474 73.2621 46.2093 70.9863 46.2093C67.0338 46.2093 63.924 45.6516 61.6579 44.5363C59.3919 43.4209 57.5143 41.648 56.0251 39.22C55.274 37.989 54.7098 36.6533 54.3508 35.2566C53.9782 33.8283 53.7919 32.2928 53.7919 30.6539C53.7919 25.9842 55.2872 22.2046 58.2765 19.3152C59.7718 17.871 61.5508 16.7885 63.6159 16.0665C65.681 15.3444 68.0299 14.9828 70.6636 14.9828C74.9376 14.9828 78.3117 15.6281 80.7847 16.9201C83.2589 18.212 85.1426 20.0835 86.4358 22.5358C87.0824 23.762 87.5682 25.1733 87.8909 26.7696C88.2939 28.7081 88.4145 30.9668 88.3767 33.4058ZM76.6995 27.902C76.4754 25.6932 75.8849 24.1115 74.9254 23.1568C74.453 22.6843 73.8851 22.3181 73.2596 22.0829C72.581 21.8359 71.8631 21.7146 71.1409 21.7249C70.2374 21.7249 69.4253 21.9051 68.7044 22.2655C67.9836 22.6259 67.3516 23.1666 66.811 23.8874C66.4664 24.3367 66.1851 24.8956 65.966 25.5653C65.7468 26.235 65.5921 27.0131 65.4984 27.9032H76.6995V27.902ZM94.3115 15.6586H90.1569V24.0822H94.3115L93.9243 45.0696L105.85 44.893L105.765 24.0822H112.051V15.6586H105.765V4.31376L94.3115 4.13721V15.6586ZM148.015 33.4058H125.108C125.21 34.3275 125.387 35.1312 125.637 35.8167C125.884 36.5034 126.205 37.0721 126.597 37.5238C127.149 38.1728 127.787 38.6587 128.504 38.9838C130.029 39.6644 132.174 39.7168 134.119 38.6368C134.768 38.2654 135.431 37.6249 136.112 36.775L147.342 37.7856C145.618 40.792 143.54 42.946 141.104 44.2525C139.887 44.904 138.405 45.3947 136.658 45.721C134.911 46.0474 132.9 46.2093 130.627 46.2093C126.674 46.2093 123.565 45.6516 121.297 44.5363C119.031 43.4209 117.155 41.648 115.665 39.22C114.914 37.989 114.35 36.6533 113.991 35.2566C113.617 33.8283 113.432 32.2928 113.432 30.6539C113.432 25.9842 114.926 22.2046 117.918 19.3152C119.412 17.871 121.191 16.7885 123.257 16.0665C125.321 15.3444 127.669 14.9828 130.304 14.9828C134.578 14.9828 137.952 15.6281 140.425 16.9201C142.898 18.212 144.782 20.0835 146.076 22.5358C146.723 23.762 147.208 25.1733 147.531 26.7696C147.932 28.7081 148.054 30.9668 148.015 33.4058ZM136.339 27.902C136.115 25.6932 135.523 24.1115 134.564 23.1568C134.092 22.6842 133.523 22.3181 132.897 22.0829C132.22 21.8361 131.503 21.7148 130.781 21.7249C129.878 21.7249 129.064 21.9051 128.343 22.2655C127.62 22.6259 126.991 23.1666 126.45 23.8874C126.105 24.3367 125.822 24.8956 125.606 25.5653C125.368 26.3259 125.211 27.1096 125.137 27.9032H136.339V27.902ZM190.531 15.6586H201.203V20.545C202.233 18.4299 203.298 16.9736 204.394 16.1785C204.951 15.7767 205.573 15.474 206.233 15.2835C206.957 15.0784 207.708 14.9779 208.461 14.9852C209.302 14.9852 210.185 15.1167 211.111 15.3785C212.033 15.6403 212.997 16.0336 214 16.5572L210.454 24.702C209.778 24.422 209.174 24.2101 208.64 24.0688C208.105 23.9276 207.641 23.8582 207.246 23.8582C206.497 23.8582 205.831 24.0128 205.25 24.3221C204.667 24.6326 204.17 25.0965 203.756 25.7175C203.167 26.5906 202.723 27.8423 202.429 29.4752C202.132 31.1081 201.984 33.1208 201.984 35.5135V45.5372H190.531V15.6586Z" fill="white"/>
</svg>
