<svg width="61" height="66" viewBox="0 0 61 66" fill="none" xmlns="http://www.w3.org/2000/svg">
<path fill-rule="evenodd" clip-rule="evenodd" d="M61 0H0V61H25.5705L30.201 65.6305L34.8315 61H61V0Z" fill="#B5212E"/>
<path d="M10.457 24.5175H12.3039V31.7516C12.3039 32.2264 12.3838 32.6732 12.5447 33.0922C12.6995 33.5017 12.9343 33.8758 13.235 34.1922C13.5348 34.507 13.8953 34.755 14.3164 34.9364C14.7374 35.118 15.2082 35.2088 15.7291 35.2088C16.2552 35.2088 16.7287 35.1178 17.1495 34.9364C17.5705 34.755 17.9281 34.507 18.223 34.1922C18.5173 33.8776 18.7436 33.5105 18.9015 33.0922C19.0592 32.6732 19.1383 32.2264 19.1383 31.7514V24.5177H19.9514V31.7518C19.9514 32.3225 19.8606 32.8601 19.6791 33.3642C19.4977 33.868 19.2123 34.311 18.8229 34.6929C18.4337 35.0741 17.9351 35.3754 17.3272 35.5971C16.7195 35.8186 15.9894 35.9295 15.1369 35.9295C14.3793 35.9295 13.7085 35.8186 13.1246 35.5971C12.5404 35.3754 12.0513 35.0731 11.6569 34.6884C11.266 34.3107 10.9604 33.8523 10.7611 33.3446C10.5584 32.8323 10.4572 32.2881 10.4572 31.7121L10.457 24.5175Z" fill="white"/>
<path d="M22.5166 24.5175H23.5501L30.7556 32.6638H30.8269V24.5175H31.6396V35.9287H31.2136L23.4082 26.862H23.3453V35.6648H22.5168L22.5166 24.5175Z" fill="white"/>
<path d="M34.4018 24.5175H36.2484V35.6648H34.4018V24.5175Z" fill="white"/>
<path d="M42.8348 34.9687C42.348 34.702 41.9415 34.3314 41.6154 33.8561C41.2894 33.3818 41.0434 32.8174 40.8775 32.1638C40.712 31.5105 40.629 30.7969 40.629 30.0233C40.629 29.2604 40.7118 28.5601 40.8775 27.9226C41.043 27.2851 41.289 26.7356 41.6154 26.2741C41.9417 25.8127 42.3482 25.4537 42.8348 25.1977C43.3213 24.9416 43.8857 24.8137 44.5279 24.8137C45.1539 24.8137 45.709 24.9416 46.1931 25.1977C46.6771 25.4537 47.0834 25.8127 47.4125 26.2741C47.7411 26.7356 47.9909 27.2853 48.1619 27.9226C48.3329 28.5601 48.4184 29.2604 48.4184 30.0233C48.4184 30.7969 48.3329 31.4968 48.1619 32.1237C47.9909 32.7504 47.7397 33.2922 47.4085 33.7481C47.0831 34.1987 46.666 34.5738 46.1851 34.8484C45.7006 35.1259 45.1484 35.2992 44.5275 35.3684C43.8853 35.3684 43.3211 35.2351 42.8348 34.9687ZM50.4461 39.1536V38.8573C49.915 38.8573 49.4074 38.7656 48.9231 38.581C48.439 38.3971 47.9983 38.1584 47.6011 37.865C47.2037 37.5714 46.8634 37.2392 46.5791 36.8687C46.2951 36.4975 46.0926 36.1283 45.9715 35.7602C46.4072 35.672 46.8293 35.5253 47.2266 35.3242C47.6185 35.1262 47.9865 34.8832 48.3234 34.6002C48.6598 34.3176 48.9655 33.9997 49.2351 33.6518C49.7726 32.9604 50.1574 32.161 50.3637 31.3073C50.4663 30.883 50.5176 30.4549 50.5176 30.0227C50.5176 29.4944 50.4493 28.9853 50.3126 28.4941C50.1789 28.0108 49.9811 27.548 49.7247 27.1181C49.2061 26.2522 48.4713 25.539 47.5937 25.0496C47.1389 24.7975 46.6552 24.6026 46.1533 24.4693C45.6377 24.3308 45.0956 24.2614 44.5275 24.2614C43.9595 24.2614 43.416 24.3304 42.8978 24.4693C42.3795 24.6081 41.898 24.8012 41.4537 25.0494C41.0141 25.2934 40.6093 25.5962 40.25 25.9495C39.8952 26.2978 39.5861 26.6905 39.3303 27.1181C39.0739 27.548 38.8763 28.0109 38.7426 28.4941C38.6049 28.9917 38.5358 29.5061 38.5373 30.0227C38.5373 30.6363 38.6429 31.2473 38.8532 31.8555C39.0634 32.4638 39.3568 33.0266 39.733 33.5443C40.1093 34.0614 40.5634 34.5162 41.0787 34.8921C41.5942 35.2716 42.1788 35.545 42.799 35.6966C42.999 35.9418 43.2528 36.1981 43.5606 36.4646C43.8685 36.7315 44.2159 36.9928 44.6026 37.2489C45.0088 37.5165 45.4305 37.7596 45.8653 37.9768C46.3283 38.2097 46.8054 38.413 47.2937 38.5855C47.7982 38.7633 48.3153 38.9023 48.8407 39.0013C49.37 39.102 49.9075 39.153 50.4461 39.1536Z" fill="white"/>
<path d="M31.5875 16.246C31.533 16.2456 31.484 16.2427 31.4408 16.2368C31.3567 16.2268 31.3015 16.2095 31.3015 16.2095C31.2883 16.2053 31.2771 16.1965 31.2698 16.1847C31.2625 16.1729 31.2596 16.1589 31.2617 16.1452C31.2617 16.1452 31.2705 16.0873 31.2985 16.0064C31.3118 15.9653 31.3307 15.9194 31.3546 15.8699C31.378 15.8202 31.4068 15.7685 31.4421 15.7173C31.5128 15.615 31.602 15.5075 31.723 15.4331C31.8461 15.362 32.0081 15.3359 32.1474 15.2742C32.2895 15.2154 32.4297 15.154 32.5662 15.1053C32.7014 15.0531 32.83 15.009 32.9396 14.9707C33.1603 14.8955 33.3123 14.853 33.3123 14.853C33.3173 14.8516 33.3225 14.8512 33.3276 14.8519C33.3327 14.8525 33.3377 14.8542 33.3421 14.8568C33.3466 14.8594 33.3505 14.8628 33.3537 14.867C33.3568 14.8711 33.3591 14.8758 33.3603 14.8808C33.3621 14.8872 33.3622 14.8939 33.3608 14.9004C33.3593 14.9068 33.3563 14.9128 33.352 14.9178C33.352 14.9178 33.2479 15.0367 33.0837 15.2041C33.0015 15.2865 32.9056 15.384 32.8002 15.4831C32.6973 15.5858 32.5804 15.6857 32.4661 15.7888C32.3498 15.8884 32.2551 16.0237 32.1379 16.1036C32.0186 16.1809 31.8839 16.2146 31.7619 16.2334C31.7071 16.242 31.6517 16.2463 31.5963 16.2461L31.5875 16.246ZM43.0579 20.184C42.864 20.076 42.5765 19.9221 42.2163 19.717C41.2189 19.1561 40.2269 18.5855 39.2405 18.0053C38.6277 17.6463 37.964 17.2574 37.2673 16.8372C36.5699 16.4185 35.8322 15.9804 35.0773 15.5142C34.3217 15.0489 33.535 14.5777 32.7466 14.0817C32.3487 13.8334 31.951 13.5848 31.5535 13.336L31.2805 13.1657C31.1795 13.1174 31.0562 13.0443 30.9907 13.0383C30.9506 13.0283 30.9184 13.0127 30.8727 13.0034L30.7287 12.9791C30.6814 12.9678 30.6319 12.9656 30.5822 12.9648L30.434 12.9576C30.2371 12.9694 30.0341 12.985 29.8575 13.0539C29.762 13.0774 29.688 13.127 29.6055 13.1648C29.5142 13.2171 29.4078 13.2872 29.3094 13.3468C28.9096 13.5965 28.511 13.845 28.1158 14.0913C27.3274 14.5878 26.54 15.0577 25.7839 15.5222C25.0287 15.9876 24.2909 16.4256 23.5926 16.8429C22.8955 17.2629 22.2319 17.6518 21.6187 18.0099C20.6318 18.5891 19.6393 19.1584 18.6411 19.7177C18.281 19.9225 17.9933 20.076 17.7991 20.184C17.6045 20.2908 17.5007 20.3474 17.5007 20.3474C17.5007 20.3474 17.5969 20.2786 17.7774 20.1491C17.9587 20.0205 18.2216 19.8272 18.562 19.59C19.4984 18.9308 20.4413 18.2809 21.3905 17.6404C21.9786 17.2418 22.6163 16.8106 23.2957 16.363C23.974 15.9136 24.6878 15.4368 25.4339 14.9563C26.1794 14.4751 26.9436 13.9673 27.7319 13.4705C28.125 13.2204 28.521 12.9681 28.9189 12.7151C29.0209 12.6511 29.1113 12.5898 29.224 12.5234C29.3521 12.456 29.4811 12.3809 29.6151 12.3434C29.8808 12.2422 30.1547 12.2141 30.4277 12.2002L30.6333 12.2106C30.7015 12.2137 30.7697 12.2183 30.8379 12.2333L31.0427 12.2709C31.1122 12.2859 31.1901 12.3154 31.2629 12.3393C31.4287 12.3905 31.5066 12.4465 31.6175 12.5003L31.6275 12.5053L31.6652 12.5268L31.6836 12.5389L31.9449 12.7054C32.3426 12.9589 32.7383 13.2115 33.1314 13.4621C33.9184 13.9606 34.6826 14.4684 35.4278 14.9502C36.1734 15.4315 36.8864 15.9093 37.5646 16.3592C38.2437 16.8072 38.8809 17.2394 39.4687 17.6382C40.4172 18.2797 41.3595 18.9303 42.2955 19.59C42.6359 19.8272 42.8988 20.0209 43.0796 20.1495L43.3563 20.3478L43.0579 20.184ZM11.075 19.8694C11.6217 19.456 12.1751 19.0516 12.7351 18.6564C13.0812 18.4096 13.4568 18.1436 13.8594 17.8707C14.2606 17.5958 14.6826 17.3036 15.1247 17.0112C15.5779 16.7082 16.0334 16.4087 16.4912 16.1128C16.958 15.8089 17.4362 15.5066 17.9134 15.2037C18.3933 14.9043 18.8723 14.6037 19.3477 14.3141C19.8122 14.0292 20.2788 13.7477 20.7474 13.4697C21.2024 13.1973 21.648 12.9434 22.0687 12.6999C22.1235 12.6693 22.1687 12.6398 22.2306 12.6087C22.2935 12.5789 22.3567 12.5491 22.4191 12.5187C22.4802 12.4859 22.5451 12.4725 22.6079 12.4519C22.6711 12.4343 22.7335 12.4128 22.7963 12.4019C23.0475 12.3591 23.2903 12.341 23.5209 12.3687C23.5779 12.3751 23.6349 12.3808 23.6911 12.3868C23.7461 12.3994 23.801 12.4121 23.8556 12.4242C23.91 12.4386 23.9615 12.444 24.0159 12.4662C24.0694 12.4868 24.1221 12.5079 24.1746 12.528C24.286 12.5663 24.3533 12.6201 24.4354 12.6663L24.5057 12.7083L24.5601 12.7483C24.5962 12.7744 24.6312 12.8004 24.6665 12.8261C24.9462 13.0282 25.186 13.212 25.3845 13.3611C25.7805 13.6609 26.0025 13.84 26.0025 13.84C26.0025 13.84 25.7462 13.7168 25.3053 13.4881C25.0855 13.3733 24.8171 13.2358 24.5145 13.0702C24.4764 13.0501 24.4379 13.029 24.3985 13.0081L24.345 12.979C24.3494 12.9821 24.3541 12.985 24.3474 12.9812L24.3437 12.9795L24.3358 12.9762L24.3202 12.9695L24.2888 12.9564C24.2059 12.9236 24.1133 12.8727 24.0359 12.8647C23.9561 12.8466 23.8785 12.8231 23.7828 12.8173C23.7375 12.8118 23.6915 12.8062 23.645 12.8008L23.5018 12.8021C23.3091 12.7988 23.1107 12.8382 22.9168 12.892C22.8684 12.9055 22.824 12.9296 22.7766 12.9458C22.7305 12.9652 22.6799 12.9781 22.6397 13.0065C22.597 13.0308 22.5543 13.0556 22.5111 13.0805C22.4677 13.1057 22.4136 13.146 22.3647 13.1783C21.9632 13.4532 21.5416 13.7454 21.099 14.0384C20.646 14.3415 20.1906 14.6409 19.7329 14.9367C19.2661 15.2406 18.7884 15.5433 18.3113 15.8463C17.8318 16.146 17.3529 16.447 16.8773 16.7366C16.4129 17.0217 15.9464 17.3032 15.4777 17.5811C15.023 17.8531 14.5776 18.1077 14.1564 18.3509C13.7368 18.596 13.3349 18.8199 12.9636 19.0255C12.366 19.3595 11.7629 19.6837 11.1546 19.9977C10.7137 20.2255 10.457 20.3483 10.457 20.3483C10.457 20.3483 10.6789 20.1692 11.075 19.8694ZM38.4999 13.0837L38.4982 13.0829C38.5053 13.087 38.5025 13.0853 38.4999 13.0837ZM49.823 19.9982C49.3843 19.7707 48.76 19.4417 48.0224 19.0283C47.6527 18.8233 47.2524 18.6004 46.8345 18.3558C46.4156 18.1129 45.9722 17.8598 45.5191 17.5883C45.0526 17.3112 44.5882 17.0305 44.1259 16.7463C43.6524 16.457 43.1756 16.1578 42.6982 15.8589C42.2231 15.5564 41.747 15.2552 41.2827 14.9517C40.827 14.6567 40.3735 14.3581 39.9225 14.056C39.4825 13.7639 39.0626 13.4726 38.6632 13.1985C38.6134 13.1641 38.5639 13.1301 38.5145 13.0964L38.4961 13.0834L38.4869 13.0771L38.4841 13.075L38.4593 13.0609L38.3818 13.0178C38.2721 12.9471 38.1955 12.9359 38.1118 12.898C38.0252 12.8677 37.9218 12.8475 37.8276 12.8261C37.7299 12.8189 37.6329 12.7974 37.5374 12.8004C37.346 12.7975 37.1593 12.8156 36.9915 12.8601L36.8655 12.8916C36.8243 12.9031 36.7888 12.9228 36.7502 12.9379C36.7123 12.9534 36.6746 12.9694 36.6377 12.985C36.5987 13.0056 36.5602 13.0258 36.5226 13.0459C36.2207 13.2102 35.9531 13.3468 35.7338 13.4608C35.2946 13.6873 35.0393 13.8097 35.0393 13.8097C35.0393 13.8097 35.2599 13.6314 35.6551 13.333C35.8527 13.1843 36.0913 13.0018 36.3705 12.7999C36.4054 12.7748 36.4409 12.7487 36.477 12.7222C36.5184 12.6975 36.5611 12.6718 36.6038 12.6458C36.6473 12.6213 36.6904 12.5912 36.7369 12.5705C36.7842 12.5506 36.8324 12.531 36.881 12.5112C36.9772 12.465 37.0822 12.4439 37.1891 12.4175C37.2958 12.385 37.4076 12.3813 37.5223 12.3654C37.5985 12.3553 37.6763 12.3561 37.7554 12.3573C37.7952 12.3577 37.8355 12.3582 37.8762 12.3577C37.9974 12.3709 38.1172 12.3802 38.2487 12.4096C38.3802 12.4448 38.5304 12.4877 38.6238 12.5385L38.7041 12.5759L38.7448 12.5945L38.8043 12.6286L38.9604 12.7185C39.3799 12.9606 39.8229 13.2144 40.2759 13.486C40.7297 13.7567 41.1974 14.0371 41.6687 14.3284C42.1422 14.6172 42.6187 14.9174 43.0964 15.2162C43.5717 15.5189 44.0471 15.8202 44.5114 16.1234C44.967 16.4187 45.4203 16.7174 45.8713 17.0196C46.3112 17.3117 46.7313 17.6034 47.1307 17.8774C47.5317 18.1494 47.9051 18.4156 48.2501 18.661C48.8071 19.0553 49.3578 19.4586 49.9018 19.8708C50.2965 20.1701 50.5176 20.3483 50.5176 20.3483C50.5176 20.3483 50.2621 20.2255 49.823 19.9982ZM24.6355 20.3415C24.635 20.3326 24.6373 20.3236 24.6419 20.3159C24.6419 20.3159 24.6908 20.2336 24.7879 20.1084C24.8366 20.0448 24.8977 19.9726 24.97 19.8923C25.05 19.8034 25.1338 19.7181 25.2213 19.6367C25.4113 19.4593 25.6404 19.2637 25.9108 19.0952C26.1834 18.9301 26.5048 18.8031 26.8043 18.6404C27.1061 18.4815 27.4054 18.3192 27.6918 18.1764C27.976 18.0296 28.2449 17.899 28.4751 17.7862C28.9339 17.558 29.2455 17.415 29.2455 17.415C29.2647 17.4062 29.2869 17.415 29.2957 17.4345C29.2993 17.4421 29.3002 17.4506 29.2984 17.4588C29.2965 17.467 29.292 17.4744 29.2856 17.4797C29.2856 17.4797 29.0215 17.6992 28.617 18.0154C28.4158 18.1747 28.1812 18.3608 27.9258 18.5542C27.673 18.751 27.3966 18.9515 27.1229 19.1549C26.8466 19.3549 26.5929 19.591 26.3257 19.7652C26.0569 19.9368 25.7822 20.0582 25.5408 20.1533C25.4198 20.2004 25.3063 20.2385 25.203 20.2685C25.0999 20.2987 25.0082 20.3227 24.9308 20.3387C24.7767 20.3722 24.6816 20.3802 24.6816 20.3802C24.6704 20.3811 24.6593 20.3776 24.6507 20.3704C24.642 20.3631 24.6366 20.3528 24.6355 20.3415ZM36.2929 20.3802C36.2929 20.3802 35.728 20.0771 34.8894 19.6089C34.4696 19.3759 33.9789 19.1054 33.4577 18.8085C32.9339 18.5156 32.3811 18.1932 31.8266 17.8737C31.274 17.5513 30.6994 17.2642 30.1895 16.9485C29.9455 16.7949 29.7065 16.6334 29.4729 16.4643C29.248 16.3049 29.0416 16.1448 28.8519 15.996C28.661 15.8484 28.4919 15.7047 28.3412 15.5773C28.2115 15.4659 28.0842 15.3518 27.9593 15.235C27.7513 15.04 27.6391 14.9178 27.6391 14.9178C27.6321 14.91 27.6284 14.8998 27.6288 14.8893C27.6293 14.8788 27.6338 14.8689 27.6415 14.8618C27.6465 14.8572 27.6526 14.8539 27.6592 14.8525C27.6659 14.851 27.6728 14.8513 27.6792 14.8534C27.6792 14.8534 27.8376 14.9014 28.1026 15.0047C28.2352 15.056 28.394 15.1224 28.5744 15.2014C28.7536 15.2827 28.9557 15.3735 29.1709 15.4819C29.3866 15.589 29.6194 15.7062 29.8596 15.8404C30.1015 15.972 30.3512 16.1192 30.605 16.2793C31.109 16.6033 31.616 16.9997 32.1451 17.3596C32.6722 17.7232 33.2014 18.0839 33.6917 18.4306C34.184 18.7742 34.6399 19.1008 35.0314 19.3798C35.4675 19.6885 35.9012 20.0006 36.3326 20.316C36.3389 20.3208 36.3436 20.3275 36.346 20.3351C36.3484 20.3427 36.3483 20.3508 36.3459 20.3584C36.3434 20.366 36.3386 20.3726 36.3322 20.3773C36.3258 20.382 36.3181 20.3845 36.3101 20.3846C36.3041 20.3847 36.2982 20.3831 36.2929 20.3802Z" fill="white"/>
<path d="M12.054 43.2381C12.054 43.8171 12.1394 44.3353 12.3101 44.792C12.4812 45.2489 12.716 45.6363 13.0153 45.953C13.3145 46.2701 13.6689 46.5124 14.0788 46.6798C14.4886 46.8471 14.9324 46.9309 15.4101 46.9309C15.6939 46.9309 15.9677 46.8745 16.2318 46.7624C16.4958 46.6504 16.7437 46.5033 16.969 46.325C17.195 46.1472 17.3993 45.943 17.5777 45.7167C17.7566 45.4902 17.9042 45.2608 18.0206 45.0285L18.5917 45.4006C18.4189 45.684 18.221 45.9509 18.0003 46.1982C17.7683 46.4584 17.5027 46.6859 17.2105 46.8747C16.9115 47.0697 16.5735 47.2263 16.1967 47.3446C15.8201 47.4629 15.3984 47.5221 14.9324 47.5221C14.4855 47.5221 14.064 47.4696 13.6678 47.3653C13.2716 47.261 12.9076 47.1151 12.5753 46.9279C12.2486 46.7451 11.9486 46.5175 11.6839 46.2516C11.4249 45.992 11.2015 45.6988 11.0194 45.3797C10.8374 45.0597 10.6974 44.7171 10.6028 44.3606C10.5052 43.9946 10.4562 43.6172 10.457 43.2381C10.457 42.852 10.5064 42.4769 10.6058 42.1125C10.703 41.7528 10.8459 41.4073 11.0312 41.0847C11.2176 40.7611 11.4459 40.4641 11.7099 40.2012C11.98 39.932 12.2847 39.7005 12.6158 39.5131C12.952 39.322 13.3199 39.1732 13.7201 39.067C14.1201 38.9605 14.5476 38.9072 15.0021 38.9072C15.4332 38.9072 15.8305 38.9663 16.1936 39.0845C16.5569 39.2026 16.8887 39.3593 17.19 39.5545C17.4848 39.7442 17.7541 39.9715 17.9911 40.2308C18.2164 40.4765 18.4174 40.7436 18.5914 41.0286L18.0029 41.4304C17.6611 40.7647 17.2804 40.2761 16.8608 39.9652C16.4409 39.6541 15.9595 39.4984 15.4155 39.4984C14.9454 39.4984 14.5068 39.5852 14.0987 39.7584C13.6955 39.9285 13.3323 40.1821 13.0325 40.5029C12.7296 40.8259 12.4905 41.2178 12.3159 41.6785C12.1414 42.1393 12.054 42.6591 12.054 43.2381Z" fill="white"/>
<path d="M21.6452 43.043V39.6102H22.8456C23.094 39.6102 23.3233 39.6517 23.5332 39.7344C23.7428 39.817 23.9235 39.9323 24.075 40.08C24.2266 40.2275 24.3452 40.405 24.4306 40.6118C24.5161 40.8185 24.5585 41.0441 24.5585 41.2885C24.5585 41.5562 24.5053 41.7983 24.3984 42.0149C24.2924 42.2303 24.1401 42.419 23.9526 42.5674C23.7622 42.7189 23.5379 42.8364 23.2794 42.9189C23.0213 43.0018 22.7385 43.043 22.4317 43.043H21.6452ZM20.2816 47.3268H21.6452V43.4568H22.6008L25.4211 47.3268H27.0002L24.0457 43.3328C24.341 43.2618 24.6111 43.1605 24.8558 43.0284C25.1005 42.8965 25.3104 42.7411 25.4852 42.5619C25.6562 42.3882 25.7934 42.1838 25.89 41.9592C25.9851 41.7366 26.0328 41.4971 26.0328 41.2413C26.0328 40.9301 25.9707 40.6433 25.8465 40.3815C25.7221 40.1196 25.5375 39.8931 25.293 39.7022C25.0482 39.5109 24.742 39.3623 24.3753 39.2557C24.0078 39.1495 23.5796 39.0964 23.0901 39.0964H20.2816V47.3268Z" fill="white"/>
<path d="M30.7472 40.7922L32.2215 44.0477H29.2319L30.7472 40.7922ZM30.9395 38.9074L27.0297 47.3268H27.7114L28.9933 44.5793H32.4719L33.7131 47.3268H35.1L31.2775 38.9074H30.9395Z" fill="white"/>
<path d="M36.1486 39.0964H36.912L42.2318 45.1111H42.2843V39.0964H42.8845V47.5216H42.57L36.807 40.8273H36.7604V47.3266H36.1486V39.0964Z" fill="white"/>
<path d="M50.5644 39.0964V39.6281H46.2872V42.5706H49.1483V43.1022H46.2872V46.7948H50.5644V47.3268H44.9236V39.0964H50.5644Z" fill="white"/>
<path d="M50.4468 39.1536H50.4461M50.4461 39.1536V38.8573C49.915 38.8573 49.4074 38.7656 48.9231 38.581C48.439 38.3971 47.9983 38.1584 47.6011 37.865C47.2037 37.5714 46.8634 37.2392 46.5791 36.8687C46.2951 36.4975 46.0926 36.1283 45.9715 35.7602C46.4072 35.672 46.8293 35.5253 47.2266 35.3242C47.6185 35.1262 47.9865 34.8832 48.3234 34.6002C48.6598 34.3176 48.9655 33.9997 49.2351 33.6518C49.7726 32.9604 50.1574 32.161 50.3637 31.3073C50.4663 30.883 50.5176 30.4549 50.5176 30.0227C50.5176 29.4944 50.4493 28.9853 50.3126 28.4941C50.1789 28.0108 49.9811 27.548 49.7247 27.1181C49.2061 26.2522 48.4713 25.539 47.5937 25.0496C47.1389 24.7975 46.6552 24.6026 46.1533 24.4693C45.6377 24.3308 45.0956 24.2614 44.5275 24.2614C43.9595 24.2614 43.416 24.3304 42.8978 24.4693C42.3795 24.6081 41.898 24.8012 41.4537 25.0494C41.0141 25.2934 40.6093 25.5962 40.25 25.9495C39.8952 26.2978 39.5861 26.6905 39.3303 27.1181C39.0739 27.548 38.8763 28.0109 38.7426 28.4941C38.6049 28.9917 38.5358 29.5061 38.5373 30.0227C38.5373 30.6363 38.6429 31.2473 38.8532 31.8555C39.0634 32.4638 39.3568 33.0266 39.733 33.5443C40.1093 34.0614 40.5634 34.5162 41.0787 34.8921C41.5942 35.2716 42.1788 35.545 42.799 35.6966C42.999 35.9418 43.2528 36.1981 43.5606 36.4646C43.8685 36.7315 44.2159 36.9928 44.6025 37.2489C45.0088 37.5165 45.4305 37.7596 45.8653 37.9768C46.3283 38.2097 46.8054 38.413 47.2937 38.5855C47.7982 38.7633 48.3153 38.9023 48.8407 39.0013C49.37 39.102 49.9075 39.153 50.4461 39.1536ZM10.457 24.5175H12.3039V31.7516C12.3039 32.2264 12.3838 32.6732 12.5447 33.0922C12.6995 33.5017 12.9343 33.8758 13.235 34.1922C13.5348 34.507 13.8953 34.755 14.3164 34.9364C14.7374 35.118 15.2082 35.2088 15.7291 35.2088C16.2552 35.2088 16.7287 35.1178 17.1495 34.9364C17.5705 34.755 17.9281 34.507 18.223 34.1922C18.5173 33.8776 18.7436 33.5105 18.9015 33.0922C19.0592 32.6732 19.1383 32.2264 19.1383 31.7514V24.5177H19.9514V31.7518C19.9514 32.3225 19.8606 32.8601 19.6791 33.3642C19.4977 33.868 19.2123 34.311 18.8229 34.6929C18.4337 35.0741 17.9351 35.3754 17.3272 35.5971C16.7195 35.8186 15.9894 35.9295 15.1369 35.9295C14.3793 35.9295 13.7085 35.8186 13.1246 35.5971C12.5404 35.3754 12.0513 35.0731 11.6569 34.6884C11.266 34.3107 10.9604 33.8523 10.7611 33.3446C10.5584 32.8323 10.4572 32.2881 10.4572 31.7121L10.457 24.5175ZM22.5166 24.5175H23.5501L30.7556 32.6638H30.8269V24.5175H31.6396V35.9287H31.2136L23.4082 26.862H23.3453V35.6648H22.5168L22.5166 24.5175ZM34.4018 24.5175H36.2484V35.6648H34.4018V24.5175ZM42.8348 34.9687C42.348 34.702 41.9415 34.3314 41.6154 33.8561C41.2894 33.3818 41.0434 32.8174 40.8775 32.1638C40.712 31.5105 40.629 30.7969 40.629 30.0233C40.629 29.2604 40.7118 28.5601 40.8775 27.9226C41.043 27.2851 41.289 26.7356 41.6154 26.2741C41.9417 25.8127 42.3482 25.4537 42.8348 25.1977C43.3213 24.9416 43.8857 24.8137 44.5279 24.8137C45.1539 24.8137 45.709 24.9416 46.1931 25.1977C46.6771 25.4537 47.0834 25.8127 47.4125 26.2741C47.7411 26.7356 47.9909 27.2853 48.1619 27.9226C48.3329 28.5601 48.4184 29.2604 48.4184 30.0233C48.4184 30.7969 48.3329 31.4968 48.1619 32.1237C47.9909 32.7504 47.7397 33.2922 47.4085 33.7481C47.0831 34.1987 46.666 34.5738 46.1851 34.8484C45.7006 35.1259 45.1484 35.2992 44.5275 35.3684C43.8853 35.3684 43.3211 35.2351 42.8348 34.9687ZM31.5875 16.246C31.533 16.2456 31.484 16.2427 31.4408 16.2368C31.3567 16.2268 31.3015 16.2095 31.3015 16.2095C31.2883 16.2053 31.2771 16.1965 31.2698 16.1847C31.2625 16.1729 31.2596 16.1589 31.2617 16.1452C31.2617 16.1452 31.2705 16.0873 31.2985 16.0064C31.3118 15.9653 31.3307 15.9194 31.3546 15.8699C31.378 15.8202 31.4068 15.7685 31.4421 15.7173C31.5128 15.615 31.602 15.5075 31.723 15.4331C31.8461 15.362 32.0081 15.3359 32.1474 15.2742C32.2895 15.2154 32.4297 15.154 32.5662 15.1053C32.7014 15.0531 32.83 15.009 32.9396 14.9707C33.1603 14.8955 33.3123 14.853 33.3123 14.853C33.3173 14.8516 33.3225 14.8512 33.3276 14.8519C33.3327 14.8525 33.3377 14.8542 33.3421 14.8568C33.3466 14.8594 33.3505 14.8628 33.3537 14.867C33.3568 14.8711 33.3591 14.8758 33.3603 14.8808C33.3621 14.8872 33.3622 14.8939 33.3608 14.9004C33.3593 14.9068 33.3563 14.9128 33.352 14.9178C33.352 14.9178 33.2479 15.0367 33.0837 15.2041C33.0015 15.2865 32.9056 15.384 32.8002 15.4831C32.6973 15.5858 32.5804 15.6857 32.4661 15.7888C32.3498 15.8884 32.2551 16.0237 32.1379 16.1036C32.0186 16.1809 31.8839 16.2146 31.7619 16.2334C31.7071 16.242 31.6517 16.2463 31.5963 16.2461L31.5875 16.246ZM43.0579 20.184C42.864 20.076 42.5765 19.9221 42.2163 19.717C41.2189 19.1561 40.2269 18.5855 39.2405 18.0053C38.6277 17.6463 37.964 17.2574 37.2673 16.8372C36.5699 16.4185 35.8322 15.9804 35.0773 15.5142C34.3217 15.0489 33.535 14.5777 32.7466 14.0817C32.3487 13.8334 31.951 13.5848 31.5535 13.336L31.2805 13.1657C31.1795 13.1174 31.0562 13.0443 30.9907 13.0383C30.9506 13.0283 30.9184 13.0127 30.8727 13.0034L30.7287 12.9791C30.6814 12.9678 30.6319 12.9656 30.5822 12.9648L30.434 12.9576C30.2371 12.9694 30.0341 12.985 29.8575 13.0539C29.762 13.0774 29.688 13.127 29.6055 13.1648C29.5142 13.2171 29.4078 13.2872 29.3094 13.3468C28.9096 13.5965 28.511 13.845 28.1158 14.0913C27.3274 14.5878 26.54 15.0577 25.7839 15.5222C25.0287 15.9876 24.2909 16.4256 23.5926 16.8429C22.8955 17.2629 22.2319 17.6518 21.6187 18.0099C20.6318 18.5891 19.6393 19.1584 18.6411 19.7177C18.281 19.9225 17.9933 20.076 17.7991 20.184C17.6045 20.2908 17.5007 20.3474 17.5007 20.3474C17.5007 20.3474 17.5969 20.2786 17.7774 20.1491C17.9587 20.0205 18.2216 19.8272 18.562 19.59C19.4984 18.9308 20.4413 18.2809 21.3905 17.6404C21.9786 17.2418 22.6163 16.8106 23.2957 16.363C23.974 15.9136 24.6878 15.4368 25.4339 14.9563C26.1794 14.4751 26.9436 13.9673 27.7319 13.4705C28.125 13.2204 28.521 12.9681 28.9189 12.7151C29.0209 12.6511 29.1113 12.5898 29.224 12.5234C29.3521 12.456 29.4811 12.3809 29.6151 12.3434C29.8808 12.2422 30.1547 12.2141 30.4277 12.2002L30.6333 12.2106C30.7015 12.2137 30.7697 12.2183 30.8379 12.2333L31.0427 12.2709C31.1122 12.2859 31.1901 12.3154 31.2629 12.3393C31.4287 12.3905 31.5066 12.4465 31.6175 12.5003L31.6275 12.5053L31.6652 12.5268L31.6836 12.5389L31.9449 12.7054C32.3426 12.9589 32.7383 13.2115 33.1314 13.4621C33.9184 13.9606 34.6826 14.4684 35.4278 14.9502C36.1734 15.4315 36.8864 15.9093 37.5646 16.3592C38.2437 16.8072 38.8809 17.2394 39.4687 17.6382C40.4172 18.2797 41.3595 18.9303 42.2955 19.59C42.6359 19.8272 42.8988 20.0209 43.0796 20.1495L43.3563 20.3478L43.0579 20.184ZM11.075 19.8694C11.6217 19.456 12.1751 19.0516 12.7351 18.6564C13.0812 18.4096 13.4568 18.1436 13.8594 17.8707C14.2606 17.5958 14.6826 17.3036 15.1247 17.0112C15.5779 16.7082 16.0334 16.4087 16.4912 16.1128C16.958 15.8089 17.4362 15.5066 17.9134 15.2037C18.3933 14.9043 18.8723 14.6037 19.3477 14.3141C19.8122 14.0292 20.2788 13.7477 20.7474 13.4697C21.2024 13.1973 21.648 12.9434 22.0687 12.6999C22.1235 12.6693 22.1687 12.6398 22.2306 12.6087C22.2935 12.5789 22.3567 12.5491 22.4191 12.5187C22.4802 12.4859 22.5451 12.4725 22.6079 12.4519C22.6711 12.4343 22.7335 12.4128 22.7963 12.4019C23.0475 12.3591 23.2903 12.341 23.5209 12.3687C23.5779 12.3751 23.6349 12.3808 23.6911 12.3868C23.7461 12.3994 23.801 12.4121 23.8556 12.4242C23.91 12.4386 23.9615 12.444 24.0159 12.4662C24.0694 12.4868 24.1221 12.5079 24.1746 12.528C24.286 12.5663 24.3533 12.6201 24.4354 12.6663L24.5057 12.7083L24.5601 12.7483C24.5962 12.7744 24.6312 12.8004 24.6665 12.8261C24.9462 13.0282 25.186 13.212 25.3845 13.3611C25.7805 13.6609 26.0025 13.84 26.0025 13.84C26.0025 13.84 25.7462 13.7168 25.3053 13.4881C25.0855 13.3733 24.8171 13.2358 24.5145 13.0702C24.4764 13.0501 24.4379 13.029 24.3985 13.0081L24.345 12.979C24.3494 12.9821 24.3541 12.985 24.3474 12.9812L24.3437 12.9795L24.3358 12.9762L24.3202 12.9695L24.2888 12.9564C24.2059 12.9236 24.1133 12.8727 24.0359 12.8647C23.9561 12.8466 23.8785 12.8231 23.7828 12.8173C23.7375 12.8118 23.6915 12.8062 23.645 12.8008L23.5018 12.8021C23.3091 12.7988 23.1107 12.8382 22.9168 12.892C22.8684 12.9055 22.824 12.9296 22.7766 12.9458C22.7305 12.9652 22.6799 12.9781 22.6397 13.0065C22.597 13.0308 22.5543 13.0556 22.5111 13.0805C22.4677 13.1057 22.4136 13.146 22.3647 13.1783C21.9632 13.4532 21.5416 13.7454 21.099 14.0384C20.646 14.3415 20.1906 14.6409 19.7329 14.9367C19.2661 15.2406 18.7884 15.5433 18.3113 15.8463C17.8318 16.146 17.3529 16.447 16.8773 16.7366C16.4129 17.0217 15.9464 17.3032 15.4777 17.5811C15.023 17.8531 14.5776 18.1077 14.1564 18.3509C13.7368 18.596 13.3349 18.8199 12.9636 19.0255C12.366 19.3595 11.7629 19.6837 11.1546 19.9977C10.7137 20.2255 10.457 20.3483 10.457 20.3483C10.457 20.3483 10.6789 20.1692 11.075 19.8694ZM38.4999 13.0837L38.4982 13.0829C38.5053 13.087 38.5025 13.0853 38.4999 13.0837ZM49.823 19.9982C49.3843 19.7707 48.76 19.4417 48.0224 19.0283C47.6527 18.8233 47.2524 18.6004 46.8345 18.3558C46.4156 18.1129 45.9722 17.8598 45.5191 17.5883C45.0526 17.3112 44.5882 17.0305 44.1259 16.7463C43.6524 16.457 43.1756 16.1578 42.6982 15.8589C42.2231 15.5564 41.747 15.2552 41.2827 14.9517C40.827 14.6567 40.3735 14.3581 39.9225 14.056C39.4825 13.7639 39.0626 13.4726 38.6632 13.1985C38.6134 13.1641 38.5639 13.1301 38.5145 13.0964L38.4961 13.0834L38.4869 13.0771L38.4841 13.075L38.4593 13.0609L38.3818 13.0178C38.2721 12.9471 38.1955 12.9359 38.1118 12.898C38.0252 12.8677 37.9218 12.8475 37.8276 12.8261C37.7299 12.8189 37.6329 12.7974 37.5374 12.8004C37.346 12.7975 37.1593 12.8156 36.9915 12.8601L36.8655 12.8916C36.8243 12.9031 36.7888 12.9228 36.7502 12.9379C36.7123 12.9534 36.6746 12.9694 36.6377 12.985C36.5987 13.0056 36.5602 13.0258 36.5226 13.0459C36.2207 13.2102 35.9531 13.3468 35.7338 13.4608C35.2946 13.6873 35.0393 13.8097 35.0393 13.8097C35.0393 13.8097 35.2599 13.6314 35.6551 13.333C35.8527 13.1843 36.0913 13.0018 36.3705 12.7999C36.4054 12.7748 36.4409 12.7487 36.477 12.7222C36.5184 12.6975 36.5611 12.6718 36.6038 12.6458C36.6473 12.6213 36.6904 12.5912 36.7369 12.5705C36.7842 12.5506 36.8324 12.531 36.881 12.5112C36.9772 12.465 37.0822 12.4439 37.1891 12.4175C37.2958 12.385 37.4076 12.3813 37.5223 12.3654C37.5985 12.3553 37.6763 12.3561 37.7554 12.3573C37.7952 12.3577 37.8355 12.3582 37.8762 12.3577C37.9974 12.3709 38.1172 12.3802 38.2487 12.4096C38.3802 12.4448 38.5304 12.4877 38.6238 12.5385L38.7041 12.5759L38.7448 12.5945L38.8043 12.6286L38.9604 12.7185C39.3799 12.9606 39.8229 13.2144 40.2759 13.486C40.7297 13.7567 41.1974 14.0371 41.6687 14.3284C42.1422 14.6172 42.6187 14.9174 43.0964 15.2162C43.5717 15.5189 44.0471 15.8202 44.5114 16.1234C44.967 16.4187 45.4203 16.7174 45.8713 17.0196C46.3112 17.3117 46.7313 17.6034 47.1307 17.8774C47.5317 18.1494 47.9051 18.4156 48.2501 18.661C48.8071 19.0553 49.3578 19.4586 49.9018 19.8708C50.2965 20.1701 50.5176 20.3483 50.5176 20.3483C50.5176 20.3483 50.2621 20.2255 49.823 19.9982ZM24.6355 20.3415C24.635 20.3326 24.6373 20.3236 24.6419 20.3159C24.6419 20.3159 24.6908 20.2336 24.7879 20.1084C24.8366 20.0448 24.8977 19.9726 24.97 19.8923C25.05 19.8034 25.1338 19.7181 25.2213 19.6367C25.4113 19.4593 25.6404 19.2637 25.9108 19.0952C26.1834 18.9301 26.5048 18.8031 26.8043 18.6404C27.1061 18.4815 27.4054 18.3192 27.6918 18.1764C27.976 18.0296 28.2449 17.899 28.4751 17.7862C28.9339 17.558 29.2455 17.415 29.2455 17.415C29.2647 17.4062 29.2869 17.415 29.2957 17.4345C29.2993 17.4421 29.3002 17.4506 29.2984 17.4588C29.2965 17.467 29.292 17.4744 29.2856 17.4797C29.2856 17.4797 29.0215 17.6992 28.617 18.0154C28.4158 18.1747 28.1812 18.3608 27.9258 18.5542C27.673 18.751 27.3966 18.9515 27.1229 19.1549C26.8466 19.3549 26.5929 19.591 26.3257 19.7652C26.0569 19.9368 25.7822 20.0582 25.5408 20.1533C25.4198 20.2004 25.3063 20.2385 25.203 20.2685C25.0999 20.2987 25.0082 20.3227 24.9308 20.3387C24.7767 20.3722 24.6816 20.3802 24.6816 20.3802C24.6704 20.3811 24.6593 20.3776 24.6507 20.3704C24.642 20.3631 24.6366 20.3528 24.6355 20.3415ZM36.2929 20.3802C36.2929 20.3802 35.728 20.0771 34.8894 19.6089C34.4696 19.3759 33.9789 19.1054 33.4577 18.8085C32.9339 18.5156 32.3811 18.1932 31.8266 17.8737C31.274 17.5513 30.6994 17.2642 30.1895 16.9485C29.9455 16.7949 29.7065 16.6334 29.4729 16.4643C29.248 16.3049 29.0416 16.1448 28.8519 15.996C28.661 15.8484 28.4919 15.7047 28.3412 15.5773C28.2115 15.4659 28.0842 15.3518 27.9593 15.235C27.7513 15.04 27.6391 14.9178 27.6391 14.9178C27.6321 14.91 27.6284 14.8998 27.6288 14.8893C27.6293 14.8788 27.6338 14.8689 27.6415 14.8618C27.6465 14.8572 27.6526 14.8539 27.6592 14.8525C27.6659 14.851 27.6728 14.8513 27.6792 14.8534C27.6792 14.8534 27.8376 14.9014 28.1026 15.0047C28.2352 15.056 28.394 15.1224 28.5744 15.2014C28.7536 15.2827 28.9557 15.3735 29.1709 15.4819C29.3866 15.589 29.6194 15.7062 29.8596 15.8404C30.1015 15.972 30.3512 16.1192 30.605 16.2793C31.109 16.6033 31.616 16.9997 32.1451 17.3596C32.6722 17.7232 33.2014 18.0839 33.6917 18.4306C34.184 18.7742 34.6399 19.1008 35.0314 19.3798C35.4675 19.6885 35.9012 20.0006 36.3326 20.316C36.3389 20.3208 36.3436 20.3275 36.346 20.3351C36.3484 20.3427 36.3483 20.3508 36.3459 20.3584C36.3434 20.366 36.3386 20.3726 36.3322 20.3773C36.3258 20.382 36.3181 20.3845 36.3101 20.3846C36.3041 20.3846 36.2982 20.3831 36.2929 20.3802ZM12.054 43.2382C12.054 43.8171 12.1394 44.3353 12.3101 44.792C12.4812 45.2489 12.716 45.6363 13.0153 45.953C13.3145 46.2701 13.6689 46.5124 14.0788 46.6798C14.4886 46.8471 14.9324 46.9309 15.4101 46.9309C15.6939 46.9309 15.9677 46.8745 16.2318 46.7624C16.4958 46.6504 16.7437 46.5033 16.969 46.325C17.195 46.1472 17.3993 45.943 17.5777 45.7167C17.7566 45.4902 17.9042 45.2608 18.0206 45.0285L18.5917 45.4006C18.4189 45.684 18.221 45.9509 18.0003 46.1982C17.7683 46.4584 17.5027 46.6859 17.2105 46.8747C16.9115 47.0697 16.5735 47.2263 16.1967 47.3446C15.8201 47.4629 15.3984 47.5221 14.9324 47.5221C14.4855 47.5221 14.064 47.4696 13.6678 47.3653C13.2716 47.261 12.9076 47.1151 12.5753 46.9279C12.2486 46.7451 11.9486 46.5175 11.6839 46.2516C11.4249 45.992 11.2015 45.6988 11.0194 45.3797C10.8374 45.0597 10.6974 44.7171 10.6028 44.3606C10.5052 43.9946 10.4562 43.6172 10.457 43.2382C10.457 42.852 10.5064 42.4769 10.6058 42.1125C10.703 41.7528 10.8459 41.4073 11.0312 41.0847C11.2176 40.7611 11.4459 40.4641 11.7099 40.2012C11.98 39.932 12.2847 39.7005 12.6158 39.5131C12.952 39.322 13.3199 39.1732 13.7201 39.067C14.1201 38.9605 14.5476 38.9072 15.0021 38.9072C15.4332 38.9072 15.8305 38.9663 16.1936 39.0845C16.5569 39.2026 16.8887 39.3593 17.19 39.5545C17.4848 39.7442 17.7541 39.9715 17.9911 40.2308C18.2164 40.4765 18.4174 40.7436 18.5914 41.0286L18.0029 41.4304C17.6611 40.7647 17.2804 40.2761 16.8608 39.9652C16.4409 39.6541 15.9595 39.4984 15.4155 39.4984C14.9454 39.4984 14.5068 39.5852 14.0987 39.7584C13.6955 39.9285 13.3323 40.1821 13.0325 40.5029C12.7296 40.8259 12.4905 41.2178 12.3159 41.6785C12.1414 42.1393 12.054 42.6591 12.054 43.2382ZM21.6452 43.043V39.6102H22.8456C23.094 39.6102 23.3233 39.6517 23.5332 39.7344C23.7428 39.817 23.9235 39.9323 24.075 40.08C24.2266 40.2275 24.3452 40.405 24.4306 40.6118C24.5161 40.8185 24.5585 41.0441 24.5585 41.2885C24.5585 41.5562 24.5053 41.7983 24.3984 42.0149C24.2924 42.2303 24.1401 42.419 23.9526 42.5674C23.7622 42.7189 23.5379 42.8364 23.2794 42.9189C23.0213 43.0018 22.7385 43.043 22.4317 43.043H21.6452ZM20.2816 47.3268H21.6452V43.4568H22.6008L25.4211 47.3268H27.0002L24.0457 43.3328C24.341 43.2618 24.6111 43.1605 24.8558 43.0284C25.1005 42.8965 25.3104 42.7411 25.4852 42.5619C25.6562 42.3882 25.7934 42.1838 25.89 41.9592C25.9851 41.7366 26.0328 41.4971 26.0328 41.2413C26.0328 40.9301 25.9707 40.6433 25.8465 40.3815C25.7221 40.1196 25.5375 39.8931 25.293 39.7022C25.0482 39.5109 24.742 39.3623 24.3753 39.2557C24.0078 39.1495 23.5796 39.0964 23.0901 39.0964H20.2816V47.3268ZM30.7472 40.7922L32.2215 44.0477H29.2319L30.7472 40.7922ZM30.9395 38.9074L27.0297 47.3268H27.7114L28.9933 44.5793H32.4719L33.7131 47.3268H35.1L31.2775 38.9074H30.9395ZM36.1486 39.0964H36.912L42.2318 45.1111H42.2843V39.0964H42.8845V47.5216H42.57L36.807 40.8273H36.7604V47.3266H36.1486V39.0964ZM50.5644 39.0964V39.6281H46.2872V42.5706H49.1483V43.1022H46.2872V46.7948H50.5644V47.3268H44.9236V39.0964H50.5644Z" stroke="white" stroke-width="0.861517"/>
</svg>
