<svg width="60" height="60" viewBox="0 0 60 60" fill="none" xmlns="http://www.w3.org/2000/svg">
<g clip-path="url(#clip0_1667_2579)">
<path d="M26.6557 16.1387H33.3442L36.6885 21.9311L33.3442 27.7236H26.6557L23.3114 21.9311L26.6557 16.1387ZM28.6855 24.2078H31.3146L32.6291 21.931L31.3146 19.6542H28.6855L27.371 21.931L28.6855 24.2078Z" fill="#B5212E"/>
<path d="M24.2077 38.0692V35.7923H21.9971L14.013 21.9634L15.6698 18.8648V0H19.1855V12.2897L23.5993 4.03465H36.401L40.8149 12.2897V0H44.3305V18.8648L45.9873 21.9634L38.0032 35.7923H35.7927V38.0692C35.7927 40.6505 34.0951 42.842 31.758 43.5881V47.8961H30.0002C27.6325 47.8961 25.7061 49.8224 25.7061 52.1903C25.7061 54.5582 27.6323 56.4844 30.0001 56.4844C32.3679 56.4844 34.2942 54.558 34.2942 52.1903V50.4325H39.2412V53.9481H37.6104C36.8108 57.4107 33.7022 60 30.0001 60C25.6938 60 22.1904 56.4966 22.1904 52.1903C22.1904 48.4882 24.7796 45.3795 28.2423 44.58V43.5881C25.9052 42.8421 24.2077 40.6505 24.2077 38.0692ZM41.9655 21.898L34.2942 7.55016H25.7061L18.0348 21.898L24.0269 32.2767H35.9734L41.9655 21.898ZM32.277 35.7925H27.7234V38.0693C27.7234 39.3247 28.7448 40.3461 30.0002 40.3461C31.2557 40.3461 32.2771 39.3247 32.2771 38.0693V35.7925H32.277Z" fill="#B5212E"/>
</g>
<defs>
<clipPath id="clip0_1667_2579">
<rect width="60" height="60" fill="white" transform="matrix(-1 0 0 1 60 0)"/>
</clipPath>
</defs>
</svg>
