<svg width="173" height="56" viewBox="0 0 173 56" fill="none" xmlns="http://www.w3.org/2000/svg">
<path d="M0 30.9141H3.16554V43.3133C3.16554 44.1272 3.3025 44.893 3.57822 45.6112C3.84367 46.3132 4.24602 46.9543 4.76146 47.4966C5.27542 48.0362 5.89317 48.4613 6.61509 48.7722C7.33664 49.0835 8.14361 49.2392 9.03637 49.2392C9.93813 49.2392 10.7498 49.0832 11.471 48.7722C12.1925 48.4613 12.8056 48.0362 13.3109 47.4966C13.8155 46.9573 14.2033 46.3282 14.474 45.6112C14.7443 44.893 14.8798 44.1272 14.8798 43.313V30.9144H16.2735V43.3137C16.2735 44.2919 16.1178 45.2133 15.8068 46.0773C15.4958 46.941 15.0067 47.7002 14.3392 48.3548C13.672 49.0082 12.8175 49.5246 11.7755 49.9046C10.7339 50.2842 9.48256 50.4744 8.02143 50.4744C6.72285 50.4744 5.57312 50.2842 4.57225 49.9046C3.57101 49.5246 2.73268 49.0064 2.05654 48.3472C1.38656 47.6997 0.862862 46.9141 0.521162 46.0439C0.173721 45.1657 0.000360417 44.233 0.000360417 43.2457V30.9141H0Z" fill="#B5212E"/>
<path d="M20.6699 30.9141H22.4413L34.7917 44.877H34.9139V30.9141H36.3069V50.473H35.5767L22.1981 34.9326H22.0903V50.0206H20.6703V30.9141H20.6699Z" fill="#B5212E"/>
<path d="M41.0421 30.9141H44.2073V50.0206H41.0421V30.9141Z" fill="#B5212E"/>
<path d="M55.4955 48.827C54.6612 48.3699 53.9645 47.7346 53.4055 46.9201C52.8468 46.107 52.4251 45.1397 52.1408 44.0193C51.8571 42.8997 51.7147 41.6764 51.7147 40.3506C51.7147 39.043 51.8568 37.8426 52.1408 36.7499C52.4244 35.6572 52.8461 34.7153 53.4055 33.9244C53.9648 33.1335 54.6615 32.5182 55.4955 32.0793C56.3295 31.6404 57.2969 31.4212 58.3976 31.4212C59.4706 31.4212 60.4221 31.6404 61.2517 32.0793C62.0814 32.5182 62.7777 33.1335 63.3418 33.9244C63.9051 34.7153 64.3333 35.6575 64.6263 36.7499C64.9193 37.8426 65.066 39.043 65.066 40.3506C65.066 41.6764 64.9193 42.8761 64.6263 43.9506C64.3333 45.0248 63.9026 45.9535 63.3349 46.735C62.7772 47.5072 62.0622 48.1502 61.238 48.6208C60.4076 49.0964 59.4612 49.3935 58.3969 49.5121C57.2962 49.5121 56.3292 49.2837 55.4955 48.827ZM68.5426 56.0001H68.5415H68.5426ZM68.5415 56.0001V55.4921C67.6311 55.4921 66.7611 55.335 65.931 55.0186C65.1013 54.7033 64.3459 54.2942 63.6651 53.7913C62.9839 53.2881 62.4007 52.7186 61.9135 52.0837C61.4265 51.4473 61.0795 50.8146 60.8719 50.1837C61.6188 50.0324 62.3423 49.7811 63.0232 49.4364C63.695 49.0969 64.3258 48.6805 64.9031 48.1953C65.4798 47.7111 66.0037 47.1662 66.4659 46.5699C67.3871 45.3848 68.0467 44.0146 68.4002 42.5513C68.5761 41.8241 68.6641 41.0902 68.6641 40.3495C68.6641 39.4441 68.5469 38.5713 68.3127 37.7295C68.0835 36.9012 67.7445 36.1078 67.3049 35.371C66.4161 33.8869 65.1566 32.6643 63.6525 31.8255C62.8729 31.3934 62.0438 31.0594 61.1836 30.831C60.2999 30.5935 59.3707 30.4746 58.3969 30.4746C57.4234 30.4746 56.4917 30.5928 55.6036 30.831C54.7152 31.0688 53.8899 31.3997 53.1283 31.8252C52.3749 32.2434 51.681 32.7624 51.0653 33.3681C50.4571 33.9649 49.9272 34.6381 49.4888 35.371C49.0494 36.1079 48.7106 36.9012 48.4814 37.7295C48.2454 38.5824 48.1271 39.464 48.1297 40.3495C48.1297 41.4012 48.3106 42.4484 48.671 43.491C49.0314 44.5335 49.5342 45.4982 50.179 46.3855C50.8241 47.272 51.6024 48.0514 52.4857 48.6957C53.3692 49.3462 54.3712 49.8148 55.4342 50.0746C55.777 50.495 56.212 50.9342 56.7397 51.391C57.2673 51.8484 57.8627 52.2964 58.5255 52.7353C59.2219 53.194 59.9446 53.6106 60.6898 53.983C61.4835 54.3822 62.3012 54.7306 63.1382 55.0262C64.0029 55.331 64.8893 55.5693 65.7897 55.739C66.697 55.9116 67.6182 55.999 68.5415 56.0001Z" fill="#B5212E"/>
<path d="M83.5983 40.5288C83.5983 41.8728 83.7965 43.0757 84.193 44.1361C84.5902 45.1968 85.1351 46.0961 85.83 46.8313C86.5245 47.5673 87.3474 48.1299 88.2989 48.5186C89.2504 48.907 90.2804 49.1015 91.3894 49.1015C92.0483 49.1015 92.6841 48.9706 93.2971 48.7103C93.9098 48.4503 94.4854 48.1089 95.0084 47.695C95.533 47.2821 96.0074 46.808 96.4216 46.2826C96.8368 45.7568 97.1795 45.2244 97.4498 44.6852L98.7755 45.5488C98.3744 46.2067 97.9149 46.8265 97.4026 47.4004C96.864 48.0045 96.2473 48.5327 95.5692 48.971C94.875 49.4237 94.0904 49.7873 93.2157 50.0619C92.3413 50.3364 91.3624 50.4739 90.2804 50.4739C89.2431 50.4739 88.2646 50.3521 87.3448 50.1099C86.425 49.8677 85.5799 49.5292 84.8086 49.0946C84.0502 48.6702 83.3537 48.1418 82.7391 47.5244C82.138 46.9219 81.6193 46.2413 81.1965 45.5004C80.774 44.7574 80.4489 43.9621 80.2295 43.1346C80.0028 42.285 79.889 41.4087 79.891 40.5288C79.891 39.6324 80.0057 38.7615 80.2363 37.9157C80.4619 37.0806 80.7939 36.2785 81.2239 35.5295C81.6567 34.7784 82.1866 34.0888 82.7996 33.4786C83.4266 32.8536 84.1339 32.3163 84.9026 31.8812C85.6829 31.4375 86.5371 31.0921 87.4663 30.8455C88.3947 30.5982 89.3873 30.4746 90.4423 30.4746C91.4431 30.4746 92.3654 30.6117 93.2085 30.8862C94.0518 31.1604 94.822 31.5241 95.5216 31.9772C96.206 32.4176 96.8311 32.9453 97.3814 33.5473C97.9043 34.1176 98.371 34.7378 98.7747 35.3993L97.4088 36.3321C96.6151 34.7866 95.7314 33.6524 94.7572 32.9306C93.7826 32.2084 92.6649 31.847 91.402 31.847C90.3107 31.847 89.2925 32.0484 88.345 32.4506C87.4091 32.8455 86.5659 33.4343 85.87 34.179C85.1668 34.9288 84.6118 35.8386 84.2063 36.9081C83.8012 37.9779 83.5983 39.1844 83.5983 40.5288Z" fill="#B5212E"/>
<path d="M105.864 40.0759V32.1068H108.651C109.228 32.1068 109.76 32.2032 110.248 32.3952C110.734 32.5868 111.154 32.8544 111.505 33.1973C111.857 33.5399 112.132 33.9519 112.331 34.4319C112.529 34.9119 112.628 35.4355 112.628 36.0028C112.628 36.6242 112.504 37.1864 112.256 37.6893C112.01 38.1893 111.656 38.6274 111.221 38.9719C110.779 39.3235 110.258 39.5962 109.658 39.7879C109.059 39.9802 108.403 40.0759 107.69 40.0759H105.864ZM102.699 50.0206H105.864V41.0366H108.083L114.63 50.0206H118.296L111.437 40.7486C112.123 40.5839 112.75 40.3486 113.318 40.0421C113.886 39.7359 114.373 39.3752 114.779 38.9592C115.176 38.5559 115.495 38.0813 115.719 37.5599C115.94 37.0432 116.05 36.4872 116.05 35.8933C116.05 35.1708 115.906 34.505 115.618 33.8973C115.329 33.2893 114.9 32.7635 114.333 32.3202C113.764 31.8762 113.054 31.5312 112.202 31.2839C111.349 31.0373 110.355 30.9141 109.219 30.9141H102.699V50.0206Z" fill="#B5212E"/>
<path d="M126.994 34.8502L130.417 42.4077H123.477L126.994 34.8502ZM127.441 30.4746L118.364 50.0201H119.947L122.923 43.6419H130.998L133.88 50.0201H137.099L128.225 30.4746H127.441Z" fill="#B5212E"/>
<path d="M139.533 30.9141H141.306L153.656 44.877H153.778V30.9141H155.171V50.473H154.441L141.062 34.9322H140.954V50.0202H139.533V30.9141Z" fill="#B5212E"/>
<path d="M173 30.9141V32.1482H163.071V38.9792H169.713V40.2133H163.071V48.7857H173V50.0206H159.905V30.9141H173Z" fill="#B5212E"/>
<path d="M89.8591 13.3251C89.6803 13.3236 89.5199 13.3142 89.3783 13.2945C89.1026 13.2618 88.9216 13.2047 88.9216 13.2047C88.8785 13.1908 88.8418 13.1619 88.8178 13.1231C88.7939 13.0843 88.7845 13.0383 88.7912 12.9931C88.7912 12.9931 88.82 12.8022 88.9119 12.536C88.9555 12.4004 89.0175 12.2495 89.0957 12.0862C89.1725 11.9225 89.2669 11.7524 89.3826 11.5836C89.6144 11.2469 89.9067 10.8927 90.3031 10.6476C90.7068 10.4135 91.2377 10.3276 91.6943 10.1244C92.16 9.93055 92.6195 9.72836 93.0668 9.568C93.5101 9.396 93.9314 9.25091 94.2908 9.12473C95.0141 8.87709 95.5122 8.73709 95.5122 8.73709C95.5285 8.73249 95.5456 8.73121 95.5624 8.73335C95.5792 8.73548 95.5954 8.74097 95.6101 8.74951C95.6247 8.75804 95.6376 8.76944 95.6478 8.78305C95.6581 8.79665 95.6655 8.81218 95.6697 8.82873C95.6754 8.84974 95.676 8.87185 95.6712 8.8931C95.6664 8.91435 95.6565 8.93408 95.6423 8.95055C95.6423 8.95055 95.301 9.34218 94.7629 9.89346C94.4937 10.1647 94.1794 10.4858 93.8338 10.8124C93.4964 11.1505 93.1133 11.4796 92.7388 11.8193C92.3575 12.1473 92.0472 12.5927 91.663 12.856C91.2719 13.1105 90.8304 13.2215 90.4307 13.2836C90.2511 13.3118 90.0697 13.3258 89.8879 13.3255H89.8591V13.3251ZM127.454 26.2949C126.819 25.9393 125.876 25.4324 124.696 24.7567C121.427 22.9095 118.175 21.0303 114.942 19.1193C112.934 17.9371 110.759 16.656 108.475 15.272C106.189 13.8931 103.772 12.4502 101.297 10.9149C98.8205 9.38218 96.2421 7.83055 93.6582 6.19673C92.3541 5.37905 91.0506 4.56038 89.7477 3.74073L88.8528 3.18C88.5219 3.02073 88.1176 2.78 87.9031 2.76036C87.7716 2.72727 87.666 2.676 87.5164 2.64545L87.0442 2.56545C86.8893 2.528 86.7271 2.52073 86.5642 2.51818L86.0783 2.49455C85.4332 2.53345 84.7678 2.58473 84.189 2.81164C83.8758 2.88909 83.6333 3.05236 83.3629 3.17709C83.0638 3.34909 82.7149 3.58 82.3923 3.77636C81.0822 4.59891 79.7757 5.41709 78.4804 6.22836C75.8962 7.86364 73.3156 9.41127 70.8374 10.9411C68.362 12.4738 65.944 13.9164 63.6554 15.2909C61.3703 16.6742 59.1956 17.9549 57.1855 19.1345C53.9511 21.042 50.6979 22.917 47.4265 24.7593C46.2461 25.4338 45.3033 25.9393 44.6668 26.2949C44.0289 26.6465 43.6886 26.8331 43.6886 26.8331C43.6886 26.8331 44.004 26.6065 44.5954 26.18C45.1898 25.7564 46.0515 25.1196 47.167 24.3385C50.2361 22.1673 53.3265 20.0268 56.4377 17.9175C58.3652 16.6047 60.4552 15.1844 62.6822 13.7102C64.9053 12.2302 67.2447 10.66 69.6902 9.07745C72.1338 7.49236 74.6383 5.82 77.2222 4.18364C78.5107 3.36 79.8085 2.52909 81.1125 1.696C81.447 1.48509 81.7432 1.28327 82.1127 1.06436C82.5325 0.842546 82.9553 0.595273 83.3943 0.471636C84.2654 0.138182 85.1629 0.0458182 86.0578 0L86.7318 0.0341818C86.9552 0.0443636 87.1787 0.0596364 87.4021 0.109091L88.0736 0.232727C88.3014 0.282182 88.5565 0.379273 88.7951 0.458182C89.3386 0.626909 89.5938 0.811273 89.9575 0.988364L89.9903 1.00473L90.1139 1.07564L90.1741 1.11564L90.2977 1.19491L90.5421 1.35127L91.0304 1.664C92.3341 2.49891 93.6308 3.33091 94.9193 4.156C97.4988 5.79782 100.003 7.47055 102.446 9.05709C104.89 10.6425 107.226 12.216 109.45 13.6978C111.675 15.1735 113.764 16.5967 115.69 17.9102C118.799 20.0229 121.887 22.1658 124.955 24.3385C126.071 25.1196 126.933 25.7578 127.525 26.1815L128.432 26.8345L127.454 26.2949ZM22.628 25.2589C24.4199 23.8972 26.2337 22.5653 28.0689 21.2636C29.2035 20.4509 30.4343 19.5749 31.7542 18.676C33.069 17.7705 34.4522 16.8084 35.9011 15.8451C37.3865 14.8472 38.8795 13.8609 40.38 12.8862C41.91 11.8855 43.4771 10.8898 45.0413 9.892C46.6141 8.90618 48.1841 7.916 49.7422 6.96218C51.2646 6.02373 52.7939 5.09667 54.3299 4.18109C55.8213 3.284 57.2817 2.44764 58.6607 1.64582C58.8402 1.54509 58.9883 1.448 59.1912 1.34545C59.3974 1.24727 59.6046 1.14909 59.809 1.04909C60.0094 0.941091 60.222 0.896727 60.4278 0.829091C60.6351 0.770909 60.8394 0.700364 61.0452 0.664364C61.8688 0.523273 62.6646 0.463636 63.4204 0.554909C63.6071 0.576 63.7938 0.594909 63.9779 0.614545C64.1585 0.656 64.3383 0.697818 64.5171 0.737818C64.6955 0.785091 64.8642 0.802909 65.0426 0.876C65.2181 0.944 65.3908 1.01345 65.5627 1.07964C65.9278 1.20582 66.1484 1.38291 66.4176 1.53527L66.6479 1.67345L66.8263 1.80509C66.9445 1.89127 67.0595 1.97673 67.1752 2.06145C68.0917 2.72691 68.8778 3.33236 69.5283 3.82364C70.8262 4.81091 71.5539 5.40073 71.5539 5.40073C71.5539 5.40073 70.7138 4.99491 69.2688 4.24182C68.5484 3.86364 67.6686 3.41091 66.6767 2.86545C66.552 2.79927 66.4259 2.72982 66.2965 2.66073L66.1213 2.56509C66.1357 2.57527 66.1512 2.58473 66.1293 2.57236L66.117 2.56655L66.091 2.55564L66.0399 2.53382L65.9372 2.49055C65.6654 2.38255 65.3619 2.21491 65.1082 2.18873C64.8465 2.12909 64.5924 2.05164 64.2785 2.03236C64.13 2.01418 63.9794 1.996 63.8269 1.97818L63.3577 1.98255C62.7262 1.97164 62.0756 2.10145 61.4402 2.27855C61.2817 2.32291 61.136 2.40218 60.9807 2.45564C60.8297 2.51964 60.6639 2.56218 60.532 2.65564C60.3921 2.73564 60.2523 2.81745 60.1107 2.89927C59.9683 2.98218 59.791 3.11491 59.6306 3.22145C58.3147 4.12691 56.9329 5.08909 55.4822 6.05418C53.9976 7.05249 52.5051 8.03871 51.0047 9.01273C49.4748 10.0138 47.9091 11.0105 46.3453 12.0087C44.7738 12.9956 43.2042 13.9869 41.6454 14.9407C40.1234 15.8797 38.5942 16.8069 37.058 17.7222C35.5677 18.6182 34.108 19.4567 32.7273 20.2575C31.3523 21.0647 30.035 21.8022 28.8178 22.4793C26.8592 23.5796 24.8826 24.6471 22.889 25.6815C21.4437 26.4316 20.6025 26.836 20.6025 26.836C20.6025 26.836 21.3298 26.2462 22.628 25.2589ZM112.515 2.90982L112.509 2.90727C112.533 2.92073 112.524 2.91564 112.515 2.91018V2.90982ZM149.627 25.6829C148.189 24.9338 146.143 23.8502 143.726 22.4887C142.514 21.8135 141.202 21.0793 139.832 20.2738C138.459 19.4738 137.006 18.64 135.521 17.7458C133.992 16.8332 132.47 15.9088 130.955 14.9727C129.403 14.02 127.84 13.0345 126.275 12.0502C124.718 11.0538 123.158 10.0618 121.636 9.06218C120.142 8.09068 118.656 7.10726 117.178 6.112C115.736 5.15018 114.359 4.19055 113.05 3.288C112.887 3.17455 112.725 3.06255 112.563 2.95164L112.503 2.90873L112.472 2.888L112.463 2.88109L112.382 2.83491L112.128 2.69273C111.768 2.46 111.517 2.42291 111.243 2.29818C110.959 2.19855 110.62 2.132 110.311 2.06145C109.991 2.03782 109.673 1.96691 109.36 1.97673C108.733 1.96727 108.121 2.02691 107.571 2.17345L107.158 2.27709C107.023 2.31491 106.907 2.38 106.78 2.42982C106.656 2.48073 106.532 2.53345 106.412 2.58473C106.284 2.65273 106.157 2.71927 106.034 2.78545C105.045 3.32655 104.168 3.77636 103.449 4.152C102.009 4.89782 101.173 5.30109 101.173 5.30109C101.173 5.30109 101.896 4.71382 103.191 3.73091C103.839 3.24109 104.621 2.64 105.536 1.97527C105.65 1.89236 105.766 1.80655 105.885 1.71927C106.021 1.63782 106.16 1.55309 106.3 1.46764C106.443 1.38691 106.584 1.28764 106.737 1.21964C106.892 1.15418 107.05 1.08945 107.209 1.02436C107.524 0.872 107.868 0.802545 108.219 0.715636C108.568 0.608727 108.935 0.596364 109.311 0.544C109.561 0.510909 109.816 0.513455 110.075 0.517455C110.205 0.518909 110.337 0.520364 110.471 0.518909C110.868 0.562182 111.261 0.592727 111.692 0.689818C112.123 0.805455 112.615 0.946909 112.921 1.11418L113.184 1.23745L113.318 1.29855L113.513 1.41091L114.024 1.70691C115.399 2.50436 116.851 3.34036 118.336 4.23491C119.823 5.12655 121.356 6.04982 122.901 7.00945C124.453 7.96036 126.015 8.94909 127.58 9.93345C129.138 10.9302 130.696 11.9225 132.218 12.9211C133.711 13.8937 135.197 14.8776 136.675 15.8727C138.117 16.8349 139.494 17.7956 140.803 18.6982C142.117 19.5938 143.341 20.4705 144.472 21.2789C146.298 22.5774 148.102 23.9057 149.885 25.2633C151.179 26.2491 151.904 26.836 151.904 26.836C151.904 26.836 151.066 26.4316 149.627 25.6829ZM67.0736 26.8138C67.0719 26.7842 67.0792 26.7548 67.0945 26.7295C67.0945 26.7295 67.2548 26.4582 67.5731 26.0458C67.7324 25.8364 67.9328 25.5985 68.1699 25.3342C68.432 25.0414 68.7068 24.7605 68.9935 24.4924C69.6163 23.908 70.367 23.264 71.2533 22.7091C72.1468 22.1651 73.2003 21.7469 74.1817 21.2109C75.171 20.6876 76.1521 20.1531 77.0906 19.6829C78.0223 19.1993 78.9035 18.7691 79.6579 18.3978C81.1619 17.6462 82.1829 17.1753 82.1829 17.1753C82.246 17.1462 82.3188 17.1753 82.3476 17.2393C82.3592 17.2643 82.3622 17.2925 82.3563 17.3195C82.3503 17.3465 82.3356 17.3707 82.3145 17.3884C82.3145 17.3884 81.4488 18.1113 80.1232 19.1527C79.4636 19.6771 78.6948 20.2902 77.8576 20.9273C77.029 21.5753 76.1233 22.2356 75.2262 22.9055C74.3204 23.5644 73.489 24.3418 72.6132 24.9156C71.7323 25.4807 70.832 25.8807 70.0405 26.1938C69.644 26.3491 69.2721 26.4745 68.9333 26.5731C68.5956 26.6727 68.295 26.7516 68.0413 26.8044C67.5363 26.9149 67.2246 26.9411 67.2246 26.9411C67.1878 26.9442 67.1514 26.9326 67.1231 26.9088C67.0948 26.885 67.077 26.8508 67.0736 26.8138ZM105.281 26.9411C105.281 26.9411 103.43 25.9429 100.681 24.4007C99.3052 23.6335 97.6971 22.7425 95.9887 21.7647C94.272 20.8 92.4602 19.7382 90.6426 18.6858C88.8315 17.624 86.9484 16.6785 85.2771 15.6385C84.4773 15.1328 83.6939 14.601 82.9283 14.044C82.1912 13.5189 81.5147 12.9916 80.893 12.5015C80.2673 12.0156 79.713 11.5422 79.2192 11.1225C78.794 10.7559 78.3767 10.38 77.9675 9.99527C77.2856 9.35309 76.918 8.95055 76.918 8.95055C76.8949 8.92499 76.8828 8.89126 76.8843 8.85671C76.8857 8.82217 76.9007 8.78963 76.9259 8.76618C76.9422 8.75083 76.9622 8.74016 76.984 8.7353C77.0057 8.73044 77.0284 8.73156 77.0495 8.73855C77.0495 8.73855 77.5685 8.89636 78.4371 9.23673C78.8718 9.40582 79.3922 9.62436 79.9833 9.88473C80.5708 10.1524 81.2332 10.4513 81.9386 10.8084C82.6453 11.1611 83.4084 11.5473 84.1959 11.9891C84.9888 12.4225 85.8069 12.9073 86.6388 13.4345C88.2909 14.5018 89.9524 15.8073 91.6868 16.9927C93.4142 18.1902 95.1489 19.3782 96.7557 20.52C98.3692 21.6516 99.8635 22.7273 101.147 23.6462C102.576 24.6631 103.998 25.691 105.411 26.7298C105.432 26.7456 105.448 26.7675 105.455 26.7925C105.463 26.8175 105.463 26.8444 105.455 26.8693C105.447 26.8943 105.431 26.916 105.41 26.9315C105.389 26.947 105.364 26.9554 105.338 26.9556C105.318 26.9558 105.298 26.9508 105.281 26.9411H105.281Z" fill="#B5212E"/>
</svg>
