<svg width="44" height="44" viewBox="0 0 44 44" fill="none" xmlns="http://www.w3.org/2000/svg">
<path d="M22 0C12.4353 0 4.65387 7.78138 4.65387 17.3461C4.65387 23.307 7.67646 28.5749 12.2692 31.6986V42.7307C12.2692 43.1614 12.4876 43.5627 12.8493 43.7965C13.2108 44.0303 13.6665 44.0647 14.0593 43.8881L22 40.3149L29.9407 43.8882C30.107 43.963 30.2845 44 30.4614 44C30.7024 44 30.9422 43.9314 31.1507 43.7966C31.5123 43.5627 31.7308 43.1614 31.7308 42.7308V31.6987C36.3236 28.575 39.3462 23.3071 39.3462 17.3462C39.3462 7.78138 31.5647 0 22 0ZM29.1923 40.7679L22.5208 37.7658C22.3552 37.6912 22.1776 37.6539 22 37.6539C21.8225 37.6539 21.6448 37.6911 21.4792 37.7657L14.8077 40.7678V33.1335C15.4456 33.4244 16.1004 33.6743 16.7675 33.8851C16.8053 33.8971 16.8431 33.9094 16.8811 33.9211C16.9662 33.9473 17.0516 33.9726 17.1372 33.9974C17.2005 34.016 17.2638 34.0343 17.3273 34.0522C17.3963 34.0715 17.4656 34.0901 17.5349 34.1085C17.6157 34.1301 17.6966 34.1511 17.7778 34.1716C17.8352 34.1859 17.8927 34.2 17.9503 34.2137C18.0437 34.2361 18.1374 34.2578 18.2314 34.2787C18.2801 34.2895 18.3289 34.3002 18.3777 34.3106C18.4807 34.3326 18.584 34.3534 18.6877 34.3736C18.7299 34.3818 18.7721 34.3901 18.8144 34.398C18.9242 34.4185 19.0345 34.4376 19.145 34.456C19.1829 34.4624 19.2208 34.4689 19.2588 34.4749C19.3728 34.4932 19.4874 34.5099 19.6023 34.5258C19.6378 34.5307 19.6733 34.536 19.7089 34.5408C19.8252 34.5562 19.942 34.57 20.0589 34.5831C20.0937 34.5869 20.1285 34.5913 20.1634 34.5951C20.28 34.6075 20.397 34.618 20.5143 34.628C20.5499 34.631 20.5853 34.6347 20.621 34.6375C20.7366 34.6466 20.8527 34.6539 20.9689 34.6607C21.0062 34.663 21.0434 34.6659 21.0808 34.6679C21.1983 34.6741 21.3162 34.6783 21.4343 34.6821C21.4699 34.6833 21.5052 34.6851 21.5408 34.6861C21.6934 34.69 21.8465 34.6923 22.0002 34.6923C22.1538 34.6923 22.3069 34.69 22.4595 34.6861C22.4951 34.6851 22.5304 34.6833 22.566 34.6821C22.6841 34.6783 22.802 34.674 22.9195 34.6679C22.9568 34.6659 22.994 34.663 23.0313 34.6607C23.1476 34.6539 23.2637 34.6466 23.3793 34.6375C23.415 34.6347 23.4504 34.631 23.486 34.628C23.6033 34.618 23.7203 34.6074 23.8369 34.5951C23.8718 34.5914 23.9065 34.587 23.9414 34.5831C24.0584 34.5699 24.1751 34.5562 24.2914 34.5408C24.327 34.536 24.3624 34.5308 24.398 34.5258C24.5128 34.5099 24.6274 34.4932 24.7415 34.4749C24.7795 34.4688 24.8173 34.4623 24.8553 34.456C24.9658 34.4376 25.0761 34.4185 25.1859 34.398C25.2282 34.3901 25.2704 34.3819 25.3126 34.3736C25.4162 34.3535 25.5195 34.3325 25.6225 34.3106C25.6714 34.3002 25.7202 34.2895 25.7689 34.2787C25.8629 34.2578 25.9566 34.2361 26.05 34.2137C26.1075 34.1999 26.165 34.1859 26.2225 34.1716C26.3037 34.1512 26.3845 34.1302 26.4654 34.1085C26.5347 34.09 26.6039 34.0716 26.6729 34.0522C26.7365 34.0343 26.7999 34.016 26.8631 33.9974C26.9486 33.9725 27.0341 33.9473 27.1192 33.9211C27.1572 33.9093 27.1949 33.897 27.2327 33.8851C27.8999 33.6743 28.5546 33.4244 29.1926 33.1336V40.7679H29.1923ZM26.8322 31.3435C26.7816 31.3609 26.731 31.3784 26.6802 31.3954C26.603 31.4212 26.5255 31.4465 26.4477 31.471C26.3572 31.4994 26.2665 31.5269 26.1755 31.5535C26.1113 31.5724 26.047 31.5912 25.9824 31.6093C25.862 31.6429 25.7412 31.675 25.62 31.7055C25.5748 31.717 25.5294 31.7278 25.4841 31.7388C25.3654 31.7675 25.2462 31.7948 25.1268 31.8206C25.0967 31.8271 25.0669 31.834 25.0368 31.8402C24.8826 31.8724 24.7279 31.9024 24.5726 31.9296C24.5568 31.9324 24.5409 31.9348 24.525 31.9376C24.3851 31.9618 24.2448 31.9837 24.1042 32.0037C24.0725 32.0083 24.0408 32.0127 24.0089 32.0171C23.8589 32.0375 23.7087 32.0562 23.558 32.072C23.5523 32.0726 23.5466 32.0734 23.541 32.074C23.3832 32.0904 23.2248 32.1039 23.0662 32.1152C23.0319 32.1177 22.9973 32.1195 22.9629 32.1218C22.8395 32.1298 22.7162 32.1361 22.5925 32.1411C22.5505 32.1428 22.5085 32.1445 22.4665 32.1459C22.3112 32.1506 22.1557 32.1539 22 32.1539C21.8443 32.1539 21.6888 32.1507 21.5335 32.1457C21.4914 32.1444 21.4494 32.1426 21.4075 32.1409C21.2838 32.136 21.1605 32.1296 21.0372 32.1216C21.0027 32.1194 20.9682 32.1175 20.9338 32.115C20.7752 32.1037 20.6169 32.0902 20.4591 32.0739C20.4534 32.0732 20.4477 32.0725 20.442 32.0719C20.2913 32.0561 20.1411 32.0373 19.9911 32.017C19.9594 32.0127 19.9277 32.0082 19.8959 32.0036C19.7552 31.9834 19.6149 31.9616 19.475 31.9375C19.4592 31.9348 19.4433 31.9323 19.4274 31.9295C19.2721 31.9022 19.1173 31.8722 18.9632 31.84C18.9332 31.8337 18.9033 31.8268 18.8733 31.8204C18.7538 31.7947 18.6346 31.7673 18.5159 31.7386C18.4706 31.7276 18.4252 31.7168 18.3801 31.7054C18.2588 31.6749 18.138 31.6426 18.0176 31.6091C17.953 31.5911 17.8888 31.5722 17.8246 31.5533C17.7336 31.5266 17.6428 31.4993 17.5522 31.4708C17.4745 31.4462 17.397 31.421 17.3198 31.3952C17.2689 31.3783 17.2183 31.3607 17.1677 31.3433C11.3683 29.3357 7.19229 23.8197 7.19229 17.3461C7.19229 9.18122 13.835 2.53842 22 2.53842C30.165 2.53842 36.8077 9.18113 36.8077 17.3461C36.8077 23.8197 32.6316 29.3357 26.8322 31.3435Z" fill="white"/>
<path d="M29.53 17.3461L31.914 12.8653C32.1198 12.4788 32.1116 12.0137 31.8927 11.6346C31.6738 11.2555 31.275 11.0158 30.8375 11.0007L25.765 10.825L23.0765 6.52002C22.8446 6.14877 22.4378 5.9231 22 5.9231C21.5622 5.9231 21.1554 6.14877 20.9235 6.52002L18.2351 10.825L13.1626 11.0007C12.7251 11.0158 12.3263 11.2555 12.1074 11.6346C11.8885 12.0137 11.8803 12.4788 12.0861 12.8653L14.4701 17.3461L12.0861 21.8269C11.8803 22.2133 11.8885 22.6785 12.1074 23.0576C12.3263 23.4366 12.7251 23.6763 13.1626 23.6914L18.2351 23.8672L20.9235 28.1721C21.1553 28.5434 21.5622 28.7691 22 28.7691C22.4378 28.7691 22.8446 28.5434 23.0765 28.1721L25.7649 23.8672L30.8374 23.6914C31.2749 23.6763 31.6737 23.4366 31.8926 23.0576C32.1115 22.6785 32.1197 22.2133 31.9139 21.8269L29.53 17.3461ZM25.0022 21.3536C24.5804 21.3682 24.1932 21.5917 23.9697 21.9498L22 25.1038L20.0304 21.9499C19.8068 21.5918 19.4197 21.3684 18.9979 21.3537L15.2818 21.2249L17.0283 17.9422C17.2266 17.5695 17.2266 17.1226 17.0283 16.7499L15.2818 13.4673L18.9979 13.3385C19.4197 13.3239 19.8069 13.1003 20.0304 12.7422L22 9.58842L23.9696 12.7423C24.1932 13.1004 24.5803 13.3239 25.0021 13.3386L28.7183 13.4674L26.9718 16.75C26.7735 17.1227 26.7735 17.5697 26.9718 17.9423L28.7183 21.225L25.0022 21.3536Z" fill="white"/>
</svg>
