<svg width="44" height="44" viewBox="0 0 44 44" fill="none" xmlns="http://www.w3.org/2000/svg">
<path d="M44 22L39.715 17.2533L41.0526 11L34.9683 9.03179L33.0001 2.94753L26.7468 4.28509L22 0L17.2533 4.28501L11 2.94745L9.03179 9.0317L2.94753 10.9999L4.28509 17.2532L0 22L4.28509 26.7467L2.94753 33L9.03179 34.9682L11 41.0525L17.2533 39.7149L22 43.9999L26.7466 39.7149L32.9999 41.0525L34.9681 34.9682L41.0524 33L39.7148 26.7467L44 22ZM32.9073 32.9073L31.2518 38.0247L25.9923 36.8996L22 40.5037L18.0076 36.8996L12.7481 38.0247L11.0926 32.9073L5.97526 31.2518L7.10027 25.9923L3.49616 22L7.10027 18.0076L5.97526 12.7481L11.0926 11.0926L12.7481 5.97526L18.0076 7.10027L22 3.49624L25.9923 7.10027L31.2518 5.97526L32.9073 11.0926L38.0247 12.7481L36.8996 18.0076L40.5037 22L36.8996 25.9923L38.0247 31.2518L32.9073 32.9073Z" fill="white"/>
<path d="M27.6229 23.7302C25.4764 23.7302 23.7301 25.4765 23.7301 27.623C23.7301 29.7695 25.4764 31.5158 27.6229 31.5158C29.7693 31.5158 31.5157 29.7695 31.5157 27.623C31.5157 25.4765 29.7693 23.7302 27.6229 23.7302ZM27.6229 28.9206C26.9074 28.9206 26.3253 28.3385 26.3253 27.623C26.3253 26.9075 26.9074 26.3254 27.6229 26.3254C28.3384 26.3254 28.9205 26.9075 28.9205 27.623C28.9205 28.3385 28.3384 28.9206 27.6229 28.9206Z" fill="white"/>
<path d="M16.377 20.27C18.5235 20.27 20.2698 18.5236 20.2698 16.3772C20.2698 14.2307 18.5235 12.4844 16.377 12.4844C14.2306 12.4844 12.4843 14.2307 12.4843 16.3772C12.4843 18.5236 14.2306 20.27 16.377 20.27ZM16.377 15.0796C17.0925 15.0796 17.6746 15.6617 17.6746 16.3772C17.6746 17.0927 17.0925 17.6748 16.377 17.6748C15.6615 17.6748 15.0794 17.0927 15.0794 16.3772C15.0794 15.6617 15.6615 15.0796 16.377 15.0796Z" fill="white"/>
<path d="M13.2935 28.8669L28.8623 13.2982L30.6971 15.1329L15.1283 30.7017L13.2935 28.8669Z" fill="white"/>
</svg>
